<svg version="1.1" id="Layer_1" xmlns="http://www.w3.org/2000/svg" xmlns:xlink="http://www.w3.org/1999/xlink" x="0px" y="0px"
	 width="100%" viewBox="0 0 1024 1024" enable-background="new 0 0 1024 1024" xml:space="preserve">
<path fill="#000000" opacity="1.000000" stroke="none" 
	d="
M478.000000,1025.000000 
	C318.666656,1025.000000 159.833328,1025.000000 1.000000,1025.000000 
	C1.000000,683.666687 1.000000,342.333344 1.000000,1.000000 
	C342.333344,1.000000 683.666687,1.000000 1025.000000,1.000000 
	C1025.000000,342.333344 1025.000000,683.666687 1025.000000,1025.000000 
	C842.833313,1025.000000 660.666687,1025.000000 478.000000,1025.000000 
M144.015762,583.988281 
	C144.015762,583.988281 144.081711,583.983826 143.952393,583.428467 
	C143.633286,583.244995 143.314178,583.061523 142.744781,582.268127 
	C139.436569,579.217529 136.128357,576.166931 132.959732,572.539001 
	C132.646301,572.334045 132.332870,572.129089 132.009308,571.988281 
	C132.009308,571.988281 132.072617,571.973816 131.875122,571.313416 
	C131.440842,571.265442 131.006561,571.217468 130.460480,571.019836 
	C130.460480,571.019836 130.287720,571.090881 129.937271,570.415222 
	C124.510857,567.039856 119.196106,563.350830 111.943466,563.479675 
	C111.938713,563.007324 111.870407,562.130615 111.938217,562.119934 
	C120.396881,560.790527 127.991982,557.209656 134.337997,551.747986 
	C145.576172,542.075867 152.562515,529.960876 152.910431,513.876404 
	C152.948120,505.074066 153.216293,496.264221 152.928482,487.472534 
	C152.779419,482.919037 151.645294,478.397736 150.983505,472.954620 
	C150.305038,462.494446 149.736771,452.025299 148.887817,441.578979 
	C148.594360,437.968109 147.603088,434.414001 146.930435,429.934021 
	C146.560608,418.254608 146.190765,406.575195 145.968277,394.117920 
	C146.550079,392.287872 147.276855,390.489655 147.686981,388.621918 
	C149.017944,382.560577 152.050720,377.987213 158.198151,375.935059 
	C161.239258,374.919891 164.258057,373.837952 168.092041,372.910797 
	C176.066208,372.691193 184.040375,372.471588 192.761765,371.745087 
	C192.797791,361.823975 192.833817,351.902893 193.015060,341.104095 
	C192.260025,340.730865 191.505905,340.036102 190.749817,340.033966 
	C182.843811,340.011475 174.937469,340.100006 166.259521,340.025360 
	C165.477676,340.057556 164.695831,340.089722 163.071991,339.960846 
	C160.215652,340.292572 157.271469,340.296722 154.523712,341.033447 
	C150.484222,342.116516 146.585007,343.722656 142.509766,345.032898 
	C142.509766,345.032898 142.438095,345.150024 141.640961,344.982666 
	C139.476181,346.245697 137.311401,347.508759 134.488968,349.077667 
	C117.275482,359.681671 111.085777,376.074951 110.093300,396.052185 
	C110.172859,405.975647 110.093384,415.904266 110.415459,425.819855 
	C110.533325,429.448486 111.603882,433.046173 112.043274,437.604034 
	C113.436264,454.555389 114.829254,471.506714 116.100822,489.221344 
	C116.405373,491.453491 116.928444,493.681244 116.973396,495.918610 
	C117.106850,502.561066 117.052002,509.207245 116.343170,516.232971 
	C115.921356,526.554443 109.608376,533.496094 101.909149,538.821777 
	C96.508911,542.557251 89.865334,544.495178 82.986801,547.077209 
	C81.502724,547.426392 80.018654,547.775574 78.562302,548.109497 
	C78.562302,548.109497 78.593010,548.101990 77.631226,548.074951 
	C77.517380,557.622620 77.399353,567.170227 77.324913,576.718262 
	C77.323654,576.880005 77.850609,577.045837 78.538452,577.855530 
	C86.000786,580.361023 94.341232,581.517761 100.727760,585.675659 
	C111.353828,592.593872 117.459930,603.142700 117.028938,616.502502 
	C116.741188,625.422241 116.502121,634.347046 115.983940,643.254700 
	C115.488319,651.774536 114.708145,660.279297 113.967308,668.783203 
	C112.687035,683.479248 111.322403,698.167969 110.042900,712.864075 
	C109.870163,714.848145 109.922218,716.859070 109.978592,718.854492 
	C110.179924,725.981689 109.957626,733.161438 110.766533,740.221558 
	C112.038055,751.319397 117.447304,760.649353 125.037277,769.590149 
	C128.020218,771.754150 131.003174,773.918091 133.989655,776.015198 
	C133.989655,776.015198 133.923813,776.027344 134.143204,776.718567 
	C137.960266,778.409302 141.777328,780.100037 146.388031,782.032288 
	C146.964020,782.334778 147.514587,782.830933 148.119858,782.910339 
	C156.160294,783.965637 164.184372,785.360962 172.262161,785.847900 
	C178.746811,786.238770 185.298920,785.510559 192.649887,784.848755 
	C192.649887,774.304260 192.649887,763.759766 192.649887,753.171814 
	C185.334015,753.171814 178.217239,753.171814 170.328934,753.214722 
	C169.746582,753.469543 169.129318,754.005554 168.586975,753.938171 
	C154.729065,752.217041 145.629288,742.354492 146.095490,728.408142 
	C146.589111,713.641357 147.965561,698.904053 148.956818,684.153870 
	C149.639786,673.991333 149.936310,663.784363 151.097931,653.676819 
	C152.818726,638.703857 154.054794,623.757996 152.910233,607.931885 
	C152.614624,606.216797 152.594421,604.394165 151.973999,602.805969 
	C149.724319,597.046936 147.273315,591.366516 144.971588,585.525208 
	C144.971588,585.525208 144.839767,585.452881 144.985764,584.768494 
	C144.668503,584.487244 144.351227,584.205994 144.015762,583.988281 
M885.057007,524.639282 
	C885.442200,526.396851 885.827332,528.154419 886.057617,530.655396 
	C887.136597,532.999512 888.152405,535.375183 889.305054,537.682495 
	C895.261963,549.605896 903.642944,558.910278 917.133057,563.693909 
	C919.630981,564.820435 922.128967,565.946899 924.516968,567.007446 
	C924.516968,567.007446 924.451660,567.117798 923.613586,566.980469 
	C921.954956,567.687805 920.296326,568.395142 918.479309,569.019836 
	C918.479309,569.019836 918.355957,569.149048 917.565796,568.987549 
	C916.266235,569.690857 914.966614,570.394104 913.509766,571.023926 
	C913.509766,571.023926 913.403198,571.161011 912.664429,571.031250 
	C911.729797,571.689880 910.795105,572.348511 909.228088,573.282776 
	C906.868835,574.672729 904.001160,575.600464 902.242004,577.535889 
	C896.028687,584.371765 889.458557,591.214722 887.067200,600.442139 
	C885.171021,607.758850 883.575806,615.314514 883.234314,622.827148 
	C882.902710,630.120544 884.342041,637.493896 884.997253,644.832703 
	C886.002563,656.093506 887.196716,667.341675 887.958984,678.619019 
	C889.135437,696.023010 890.340576,713.436340 890.918640,730.866089 
	C891.399414,745.362183 885.298340,753.021545 871.292053,757.317261 
	C870.525391,757.552429 869.803955,757.935120 868.115356,758.116089 
	C860.179321,758.116089 852.243286,758.116089 844.220215,758.116089 
	C844.220215,769.186584 844.220215,779.921875 844.220215,791.023254 
	C855.207520,791.023254 865.989807,791.037476 876.771790,790.976379 
	C877.250427,790.973694 877.725220,790.284546 879.030701,789.973083 
	C885.251770,788.329468 892.033569,787.757568 897.592712,784.848816 
	C917.283447,774.545959 927.577942,757.574036 927.755737,735.516052 
	C927.881287,719.923767 926.100403,704.308350 924.985229,688.716553 
	C924.131409,676.777954 922.865601,664.868896 922.007874,652.930542 
	C921.181763,641.432190 920.287842,629.917114 920.156799,618.401123 
	C920.104980,613.852661 921.248596,608.906311 923.213989,604.793945 
	C928.363464,594.019104 937.303528,587.382751 948.703674,583.959900 
	C952.455933,582.833252 956.138977,581.476135 960.700378,579.848694 
	C960.814087,571.163879 960.958130,562.479065 960.969421,553.794067 
	C960.970093,553.247986 959.933289,552.700500 959.005127,551.469238 
	C957.731689,551.308228 956.460999,551.121094 955.184448,550.990540 
	C947.760132,550.231201 941.423828,547.191711 935.236816,542.974304 
	C927.987244,538.032593 924.382263,530.864075 920.907837,522.703857 
	C920.855286,511.655487 920.802673,500.607117 920.946838,488.633362 
	C921.291687,484.394928 921.605652,480.153748 921.988037,475.918701 
	C922.648132,468.608490 923.411133,461.307190 924.021606,453.993011 
	C925.013428,442.110352 925.916992,430.220337 927.671631,417.882294 
	C927.796448,410.459961 927.965820,403.037781 927.992493,395.615112 
	C927.995972,394.633423 927.271912,393.649139 926.980652,391.847717 
	C925.372009,373.707367 916.885864,360.087036 900.929993,350.943756 
	C892.543152,346.137848 883.275635,345.055542 873.786011,342.254211 
	C863.897705,342.254211 854.009399,342.254211 844.300903,342.254211 
	C844.300903,353.368591 844.300903,364.098541 844.300903,375.066437 
	C852.386902,375.066437 860.184875,375.066437 868.357117,375.782562 
	C876.389282,375.874329 883.253540,379.187378 887.096069,385.910675 
	C889.688965,390.447510 890.572266,396.363281 890.840393,401.731140 
	C891.225525,409.441467 890.466858,417.221527 889.989624,424.959045 
	C889.444031,433.805420 888.661316,442.637054 888.000549,451.476501 
	C887.022217,464.562561 886.060486,477.649841 884.273682,491.160034 
	C884.173767,501.394989 884.058289,511.629852 884.023010,521.865051 
	C884.021362,522.342468 884.735107,522.822327 885.053040,523.577637 
	C885.053040,523.577637 885.198181,523.821228 885.057007,524.639282 
z"/>
<path fill="#1EECE5" opacity="1.000000" stroke="none" 
	d="
M926.857849,418.333435 
	C925.916992,430.220337 925.013428,442.110352 924.021606,453.993011 
	C923.411133,461.307190 922.648132,468.608490 921.988037,475.918701 
	C921.605652,480.153748 921.291687,484.394928 920.575745,489.244232 
	C918.706665,501.093658 917.602051,512.325806 920.752258,523.488708 
	C924.382263,530.864075 927.987244,538.032593 935.236816,542.974304 
	C941.423828,547.191711 947.760132,550.231201 955.184448,550.990540 
	C956.460999,551.121094 957.731689,551.308228 959.262573,552.269470 
	C959.631226,562.121277 959.742493,571.172852 959.853699,580.224426 
	C956.138977,581.476135 952.455933,582.833252 948.703674,583.959900 
	C937.303528,587.382751 928.363464,594.019104 923.213989,604.793945 
	C921.248596,608.906311 920.104980,613.852661 920.156799,618.401123 
	C920.287842,629.917114 921.181763,641.432190 922.007874,652.930542 
	C922.865601,664.868896 924.131409,676.777954 924.985229,688.716553 
	C926.100403,704.308350 927.881287,719.923767 927.755737,735.516052 
	C927.577942,757.574036 917.283447,774.545959 897.592712,784.848816 
	C892.033569,787.757568 885.251770,788.329468 878.139648,789.853149 
	C868.134094,789.785889 859.015991,789.707153 849.906921,789.956604 
	C846.303650,790.055298 844.841858,789.031189 844.975159,785.219238 
	C845.223938,778.101074 845.217041,770.962463 844.978882,763.843628 
	C844.855591,760.158569 846.031738,758.965454 849.778870,759.007019 
	C856.202820,759.078552 862.633545,758.534668 869.061462,758.249146 
	C869.803955,757.935120 870.525391,757.552429 871.292053,757.317261 
	C885.298340,753.021545 891.399414,745.362183 890.918640,730.866089 
	C890.340576,713.436340 889.135437,696.023010 887.958984,678.619019 
	C887.196716,667.341675 886.002563,656.093506 884.997253,644.832703 
	C884.342041,637.493896 882.902710,630.120544 883.234314,622.827148 
	C883.575806,615.314514 885.171021,607.758850 887.067200,600.442139 
	C889.458557,591.214722 896.028687,584.371765 902.242004,577.535889 
	C904.001160,575.600464 906.868835,574.672729 909.808533,573.279175 
	C911.393677,572.570740 912.398438,571.865845 913.403198,571.161011 
	C913.403198,571.161011 913.509766,571.023926 913.980408,571.080627 
	C915.752686,570.474548 917.054321,569.811768 918.355957,569.149048 
	C918.355957,569.149048 918.479309,569.019836 918.974792,569.099365 
	C921.130737,568.491821 922.791199,567.804749 924.451660,567.117798 
	C924.451660,567.117798 924.516968,567.007446 924.900391,567.040771 
	C925.476501,566.328674 925.669250,565.583313 925.861938,564.837952 
	C922.851379,564.216431 919.840820,563.594910 916.830200,562.973389 
	C903.642944,558.910278 895.261963,549.605896 889.305054,537.682495 
	C888.152405,535.375183 887.136597,532.999512 886.306702,530.015381 
	C886.103271,527.524048 885.650757,525.672607 885.198242,523.821228 
	C885.198181,523.821228 885.053040,523.577637 885.126709,522.945923 
	C885.164124,511.788300 885.127869,501.262451 885.091614,490.736603 
	C886.060486,477.649841 887.022217,464.562561 888.000549,451.476501 
	C888.661316,442.637054 889.444031,433.805420 889.989624,424.959045 
	C890.466858,417.221527 891.225525,409.441467 890.840393,401.731140 
	C890.572266,396.363281 889.688965,390.447510 887.096069,385.910675 
	C883.253540,379.187378 876.389282,375.874329 867.837769,375.176636 
	C861.539062,374.344238 855.757324,373.903961 849.981323,373.970551 
	C846.457214,374.011169 844.836609,373.182281 844.974487,369.279602 
	C845.232178,361.983704 845.168518,354.669525 844.996704,347.368622 
	C844.921082,344.153137 845.980408,342.972931 849.272217,343.042023 
	C857.568604,343.216217 865.871338,343.086914 874.171570,343.079254 
	C883.275635,345.055542 892.543152,346.137848 900.929993,350.943756 
	C916.885864,360.087036 925.372009,373.707367 926.848511,392.746155 
	C926.763489,401.874176 926.810669,410.103821 926.857849,418.333435 
z"/>
<path fill="#1EECE5" opacity="1.000000" stroke="none" 
	d="
M83.777008,547.235840 
	C89.865334,544.495178 96.508911,542.557251 101.909149,538.821777 
	C109.608376,533.496094 115.921356,526.554443 116.918976,515.706787 
	C117.515289,506.724731 117.556488,498.268677 117.499306,489.813293 
	C117.496223,489.358704 116.666924,488.909698 116.222237,488.458069 
	C114.829254,471.506714 113.436264,454.555389 112.237610,436.791260 
	C111.698158,422.408875 110.964371,408.839294 110.230583,395.269714 
	C111.085777,376.074951 117.275482,359.681671 135.165558,348.936768 
	C138.040802,347.580597 140.239456,346.365326 142.438110,345.150024 
	C142.438095,345.150024 142.509766,345.032898 143.024460,345.093384 
	C157.169632,341.108551 171.165817,341.603271 185.152328,341.605713 
	C189.534760,341.606476 191.588165,342.660492 191.288696,347.479919 
	C190.927719,353.288849 190.983047,359.149872 191.288223,364.965790 
	C191.537262,369.711700 189.368027,371.170227 185.047760,371.036377 
	C180.554428,370.897217 176.045120,370.909424 171.557983,371.144806 
	C170.109589,371.220795 168.709259,372.213074 167.286957,372.786224 
	C164.258057,373.837952 161.239258,374.919891 158.198151,375.935059 
	C152.050720,377.987213 149.017944,382.560577 147.686981,388.621918 
	C147.276855,390.489655 146.550079,392.287872 145.632477,394.844849 
	C145.841309,407.325836 146.385941,419.079895 146.930573,430.833954 
	C147.603088,434.414001 148.594360,437.968109 148.887817,441.578979 
	C149.736771,452.025299 150.305038,462.494446 150.927948,473.884705 
	C151.519608,488.095551 152.166840,501.376312 152.814056,514.657104 
	C152.562515,529.960876 145.576172,542.075867 134.337997,551.747986 
	C127.991982,557.209656 120.396881,560.790527 111.938217,562.119934 
	C111.870407,562.130615 111.938713,563.007324 112.392624,563.971680 
	C118.657082,566.672791 124.472397,568.881836 130.287720,571.090881 
	C130.287720,571.090881 130.460480,571.019836 130.706421,571.332214 
	C131.325790,571.754333 131.699203,571.864075 132.072601,571.973877 
	C132.072617,571.973816 132.009308,571.988281 132.052643,572.206909 
	C132.337372,572.655823 132.578751,572.886108 132.820129,573.116333 
	C136.128357,576.166931 139.436569,579.217529 142.958038,582.840454 
	C143.474777,583.603149 143.778244,583.793518 144.081711,583.983826 
	C144.081711,583.983826 144.015762,583.988281 144.020782,584.265747 
	C144.297119,584.846497 144.568451,585.149658 144.839783,585.452881 
	C144.839767,585.452881 144.971588,585.525208 144.937302,586.006287 
	C146.962234,592.836609 148.991974,599.195679 151.108353,605.525818 
	C151.482101,606.643677 152.217545,607.640564 152.785965,608.693359 
	C154.054794,623.757996 152.818726,638.703857 151.097931,653.676819 
	C149.936310,663.784363 149.639786,673.991333 148.956818,684.153870 
	C147.965561,698.904053 146.589111,713.641357 146.095490,728.408142 
	C145.629288,742.354492 154.729065,752.217041 168.586975,753.938171 
	C169.129318,754.005554 169.746582,753.469543 171.043015,753.432556 
	C176.873428,753.799438 181.995667,754.164551 187.104156,754.025452 
	C190.842651,753.923706 192.025116,755.373779 191.946442,758.973755 
	C191.754883,767.738831 191.844635,776.510132 191.821091,785.278931 
	C185.298920,785.510559 178.746811,786.238770 172.262161,785.847900 
	C164.184372,785.360962 156.160294,783.965637 148.119858,782.910339 
	C147.514587,782.830933 146.964020,782.334778 145.929840,781.613892 
	C141.622391,779.472839 137.773102,777.750061 133.923813,776.027344 
	C133.923813,776.027344 133.989655,776.015198 133.926331,775.708252 
	C130.830444,773.243530 127.797874,771.085815 124.765305,768.928101 
	C117.447304,760.649353 112.038055,751.319397 110.766533,740.221558 
	C109.957626,733.161438 110.179924,725.981689 109.978592,718.854492 
	C109.922218,716.859070 109.870163,714.848145 110.042900,712.864075 
	C111.322403,698.167969 112.687035,683.479248 113.967308,668.783203 
	C114.708145,660.279297 115.488319,651.774536 115.983940,643.254700 
	C116.502121,634.347046 116.741188,625.422241 117.028938,616.502502 
	C117.459930,603.142700 111.353828,592.593872 100.727760,585.675659 
	C94.341232,581.517761 86.000786,580.361023 78.322067,577.044434 
	C78.268127,566.856262 78.430573,557.479126 78.593010,548.101990 
	C78.593010,548.101990 78.562302,548.109497 78.938400,548.205933 
	C80.802002,547.946899 82.289505,547.591370 83.777008,547.235840 
z"/>
<path fill="#81EFEA" opacity="1.000000" stroke="none" 
	d="
M167.689499,372.848511 
	C168.709259,372.213074 170.109589,371.220795 171.557983,371.144806 
	C176.045120,370.909424 180.554428,370.897217 185.047760,371.036377 
	C189.368027,371.170227 191.537262,369.711700 191.288223,364.965790 
	C190.983047,359.149872 190.927719,353.288849 191.288696,347.479919 
	C191.588165,342.660492 189.534760,341.606476 185.152328,341.605713 
	C171.165817,341.603271 157.169632,341.108551 143.082581,345.129913 
	C146.585007,343.722656 150.484222,342.116516 154.523712,341.033447 
	C157.271469,340.296722 160.215652,340.292572 163.718857,340.220459 
	C165.254227,340.372650 166.142731,340.265228 167.031235,340.157837 
	C174.937469,340.100006 182.843811,340.011475 190.749817,340.033966 
	C191.505905,340.036102 192.260025,340.730865 192.740448,341.902893 
	C192.315414,352.551819 192.164978,362.401886 192.014542,372.251984 
	C184.040375,372.471588 176.066208,372.691193 167.689499,372.848511 
z"/>
<path fill="#ADFBFA" opacity="1.000000" stroke="none" 
	d="
M868.588379,758.182617 
	C862.633545,758.534668 856.202820,759.078552 849.778870,759.007019 
	C846.031738,758.965454 844.855591,760.158569 844.978882,763.843628 
	C845.217041,770.962463 845.223938,778.101074 844.975159,785.219238 
	C844.841858,789.031189 846.303650,790.055298 849.906921,789.956604 
	C859.015991,789.707153 868.134094,789.785889 877.725220,789.824158 
	C877.725220,790.284546 877.250427,790.973694 876.771790,790.976379 
	C865.989807,791.037476 855.207520,791.023254 844.220215,791.023254 
	C844.220215,779.921875 844.220215,769.186584 844.220215,758.116089 
	C852.243286,758.116089 860.179321,758.116089 868.588379,758.182617 
z"/>
<path fill="#ADFBFA" opacity="1.000000" stroke="none" 
	d="
M873.978760,342.666748 
	C865.871338,343.086914 857.568604,343.216217 849.272217,343.042023 
	C845.980408,342.972931 844.921082,344.153137 844.996704,347.368622 
	C845.168518,354.669525 845.232178,361.983704 844.974487,369.279602 
	C844.836609,373.182281 846.457214,374.011169 849.981323,373.970551 
	C855.757324,373.903961 861.539062,374.344238 867.650635,374.818604 
	C860.184875,375.066437 852.386902,375.066437 844.300903,375.066437 
	C844.300903,364.098541 844.300903,353.368591 844.300903,342.254211 
	C854.009399,342.254211 863.897705,342.254211 873.978760,342.666748 
z"/>
<path fill="#ADFBFA" opacity="1.000000" stroke="none" 
	d="
M110.161942,395.660950 
	C110.964371,408.839294 111.698158,422.408875 112.335892,436.318207 
	C111.603882,433.046173 110.533325,429.448486 110.415459,425.819855 
	C110.093384,415.904266 110.172859,405.975647 110.161942,395.660950 
z"/>
<path fill="#ADFBFA" opacity="1.000000" stroke="none" 
	d="
M192.235489,785.063843 
	C191.844635,776.510132 191.754883,767.738831 191.946442,758.973755 
	C192.025116,755.373779 190.842651,753.923706 187.104156,754.025452 
	C181.995667,754.164551 176.873428,753.799438 171.428787,753.411133 
	C178.217239,753.171814 185.334015,753.171814 192.649887,753.171814 
	C192.649887,763.759766 192.649887,774.304260 192.235489,785.063843 
z"/>
<path fill="#ADFBFA" opacity="1.000000" stroke="none" 
	d="
M152.862244,514.266724 
	C152.166840,501.376312 151.519608,488.095551 150.914291,474.338318 
	C151.645294,478.397736 152.779419,482.919037 152.928482,487.472534 
	C153.216293,496.264221 152.948120,505.074066 152.862244,514.266724 
z"/>
<path fill="#ADFBFA" opacity="1.000000" stroke="none" 
	d="
M920.830078,523.096313 
	C917.602051,512.325806 918.706665,501.093658 920.477356,489.706909 
	C920.802673,500.607117 920.855286,511.655487 920.830078,523.096313 
z"/>
<path fill="#81EFEA" opacity="1.000000" stroke="none" 
	d="
M146.930511,430.383972 
	C146.385941,419.079895 145.841309,407.325836 145.558807,395.233765 
	C146.190765,406.575195 146.560608,418.254608 146.930511,430.383972 
z"/>
<path fill="#81EFEA" opacity="1.000000" stroke="none" 
	d="
M152.848099,608.312622 
	C152.217545,607.640564 151.482101,606.643677 151.108353,605.525818 
	C148.991974,599.195679 146.962234,592.836609 144.900635,586.071899 
	C147.273315,591.366516 149.724319,597.046936 151.973999,602.805969 
	C152.594421,604.394165 152.614624,606.216797 152.848099,608.312622 
z"/>
<path fill="#81EFEA" opacity="1.000000" stroke="none" 
	d="
M884.682617,490.948303 
	C885.127869,501.262451 885.164124,511.788300 885.158081,522.807617 
	C884.735107,522.822327 884.021362,522.342468 884.023010,521.865051 
	C884.058289,511.629852 884.173767,501.394989 884.682617,490.948303 
z"/>
<path fill="#ADFBFA" opacity="1.000000" stroke="none" 
	d="
M116.161530,488.839722 
	C116.666924,488.909698 117.496223,489.358704 117.499306,489.813293 
	C117.556488,498.268677 117.515289,506.724731 117.282768,515.516357 
	C117.052002,509.207245 117.106850,502.561066 116.973396,495.918610 
	C116.928444,493.681244 116.405373,491.453491 116.161530,488.839722 
z"/>
<path fill="#ADFBFA" opacity="1.000000" stroke="none" 
	d="
M192.388153,371.998535 
	C192.164978,362.401886 192.315414,352.551819 192.667847,342.341736 
	C192.833817,351.902893 192.797791,361.823975 192.388153,371.998535 
z"/>
<path fill="#81EFEA" opacity="1.000000" stroke="none" 
	d="
M130.112488,570.753052 
	C124.472397,568.881836 118.657082,566.672791 112.565735,564.298401 
	C119.196106,563.350830 124.510857,567.039856 130.112488,570.753052 
z"/>
<path fill="#ADFBFA" opacity="1.000000" stroke="none" 
	d="
M78.112122,548.088501 
	C78.430573,557.479126 78.268127,566.856262 78.118378,576.721558 
	C77.850609,577.045837 77.323654,576.880005 77.324913,576.718262 
	C77.399353,567.170227 77.517380,557.622620 78.112122,548.088501 
z"/>
<path fill="#ADFBFA" opacity="1.000000" stroke="none" 
	d="
M960.277039,580.036560 
	C959.742493,571.172852 959.631226,562.121277 959.449585,552.611694 
	C959.933289,552.700500 960.970093,553.247986 960.969421,553.794067 
	C960.958130,562.479065 960.814087,571.163879 960.277039,580.036560 
z"/>
<path fill="#ADFBFA" opacity="1.000000" stroke="none" 
	d="
M927.264771,418.107849 
	C926.810669,410.103821 926.763489,401.874176 926.800537,393.155304 
	C927.271912,393.649139 927.995972,394.633423 927.992493,395.615112 
	C927.965820,403.037781 927.796448,410.459961 927.264771,418.107849 
z"/>
<path fill="#81EFEA" opacity="1.000000" stroke="none" 
	d="
M134.033508,776.372925 
	C137.773102,777.750061 141.622391,779.472839 145.533020,781.493164 
	C141.777328,780.100037 137.960266,778.409302 134.033508,776.372925 
z"/>
<path fill="#81EFEA" opacity="1.000000" stroke="none" 
	d="
M916.981628,563.333618 
	C919.840820,563.594910 922.851379,564.216431 925.861938,564.837952 
	C925.669250,565.583313 925.476501,566.328674 924.955322,567.073730 
	C922.128967,565.946899 919.630981,564.820435 916.981628,563.333618 
z"/>
<path fill="#81EFEA" opacity="1.000000" stroke="none" 
	d="
M124.901291,769.259155 
	C127.797874,771.085815 130.830444,773.243530 133.924576,775.741638 
	C131.003174,773.918091 128.020218,771.754150 124.901291,769.259155 
z"/>
<path fill="#81EFEA" opacity="1.000000" stroke="none" 
	d="
M142.039536,345.066345 
	C140.239456,346.365326 138.040802,347.580597 135.494385,348.783844 
	C137.311401,347.508759 139.476181,346.245697 142.039536,345.066345 
z"/>
<path fill="#81EFEA" opacity="1.000000" stroke="none" 
	d="
M885.127625,524.230225 
	C885.650757,525.672607 886.103271,527.524048 886.384155,529.643677 
	C885.827332,528.154419 885.442200,526.396851 885.127625,524.230225 
z"/>
<path fill="#81EFEA" opacity="1.000000" stroke="none" 
	d="
M924.032593,567.049072 
	C922.791199,567.804749 921.130737,568.491821 919.053955,569.140625 
	C920.296326,568.395142 921.954956,567.687805 924.032593,567.049072 
z"/>
<path fill="#81EFEA" opacity="1.000000" stroke="none" 
	d="
M913.033813,571.096130 
	C912.398438,571.865845 911.393677,572.570740 910.124695,573.141357 
	C910.795105,572.348511 911.729797,571.689880 913.033813,571.096130 
z"/>
<path fill="#81EFEA" opacity="1.000000" stroke="none" 
	d="
M917.960876,569.068298 
	C917.054321,569.811768 915.752686,570.474548 914.059082,571.117371 
	C914.966614,570.394104 916.266235,569.690857 917.960876,569.068298 
z"/>
<path fill="#ADFBFA" opacity="1.000000" stroke="none" 
	d="
M83.381905,547.156494 
	C82.289505,547.591370 80.802002,547.946899 78.924545,548.213562 
	C80.018654,547.775574 81.502724,547.426392 83.381905,547.156494 
z"/>
<path fill="#ADFBFA" opacity="1.000000" stroke="none" 
	d="
M166.645386,340.091614 
	C166.142731,340.265228 165.254227,340.372650 164.139862,340.300964 
	C164.695831,340.089722 165.477676,340.057556 166.645386,340.091614 
z"/>
<path fill="#81EFEA" opacity="1.000000" stroke="none" 
	d="
M131.973862,571.643677 
	C131.699203,571.864075 131.325790,571.754333 130.762329,571.407043 
	C131.006561,571.217468 131.440842,571.265442 131.973862,571.643677 
z"/>
<path fill="#81EFEA" opacity="1.000000" stroke="none" 
	d="
M132.889923,572.827637 
	C132.578751,572.886108 132.337372,572.655823 132.057724,572.174805 
	C132.332870,572.129089 132.646301,572.334045 132.889923,572.827637 
z"/>
<path fill="#81EFEA" opacity="1.000000" stroke="none" 
	d="
M144.017059,583.706177 
	C143.778244,583.793518 143.474777,583.603149 143.083191,583.145447 
	C143.314178,583.061523 143.633286,583.244995 144.017059,583.706177 
z"/>
<path fill="#81EFEA" opacity="1.000000" stroke="none" 
	d="
M144.912781,585.110718 
	C144.568451,585.149658 144.297119,584.846497 144.029877,584.234009 
	C144.351227,584.205994 144.668503,584.487244 144.912781,585.110718 
z"/>
</svg>