<svg version="1.1" id="Layer_1" xmlns="http://www.w3.org/2000/svg" xmlns:xlink="http://www.w3.org/1999/xlink" x="0px" y="0px"
	 width="100%" viewBox="0 0 1024 1024" enable-background="new 0 0 1024 1024" xml:space="preserve">
<path fill="#FFFFFF" opacity="1.000000" stroke="none" 
	d="
M571.000000,1025.000000 
	C380.666656,1025.000000 190.833328,1025.000000 1.000000,1025.000000 
	C1.000000,683.666687 1.000000,342.333344 1.000000,1.000000 
	C342.333344,1.000000 683.666687,1.000000 1025.000000,1.000000 
	C1025.000000,342.333344 1025.000000,683.666687 1025.000000,1025.000000 
	C873.833313,1025.000000 722.666687,1025.000000 571.000000,1025.000000 
M891.606201,405.524780 
	C890.204346,424.280457 888.710510,443.029816 887.427490,461.793610 
	C886.212585,479.559479 884.355591,497.339478 884.334534,515.115112 
	C884.304504,540.411621 898.472717,557.882507 922.701477,564.824707 
	C924.045837,565.209839 925.362427,565.691772 927.599976,566.427063 
	C925.764221,566.942139 924.971619,567.166931 924.177551,567.386658 
	C923.375610,567.608704 922.566650,567.807251 921.770264,568.047546 
	C903.884766,573.443359 891.539612,584.622314 886.587158,602.886292 
	C884.995056,608.757690 883.897095,615.082458 884.242554,621.104004 
	C885.662964,645.859863 887.888184,670.568359 889.488953,695.315552 
	C890.368713,708.916931 891.238281,722.575623 890.917480,736.180359 
	C890.650024,747.518738 884.028442,754.551514 872.964539,757.201782 
	C868.483643,758.275146 863.770142,758.537109 859.141785,758.790771 
	C854.401794,759.050598 849.636353,758.848389 844.827026,758.848389 
	C844.827026,769.644958 844.827026,779.715515 844.827026,789.848877 
	C856.321716,789.848877 867.540649,790.704651 878.584290,789.677246 
	C904.483643,787.267639 922.468506,770.324158 925.924072,744.671936 
	C927.399231,733.721497 927.095154,722.381653 926.323364,711.307678 
	C924.356079,683.082214 921.514526,654.918945 919.323669,626.707397 
	C917.719727,606.053894 926.997437,591.849487 946.441528,584.513916 
	C950.753052,582.887329 955.266174,581.794861 959.795776,580.423401 
	C959.795776,571.079346 959.795776,561.794312 959.795776,552.464417 
	C955.627136,551.324585 951.563782,550.450256 947.662537,549.105652 
	C931.253967,543.450012 919.842285,532.744080 919.854370,514.731018 
	C919.867310,495.486359 922.241638,476.247894 923.447693,456.998138 
	C924.717102,436.736969 926.660645,416.470703 926.783997,396.197388 
	C926.928589,372.421295 913.603149,354.200317 892.422791,346.646210 
	C876.960938,341.131622 860.908875,343.145782 844.744629,342.920197 
	C844.744629,353.461151 844.744629,363.549835 844.744629,374.151611 
	C846.972961,374.151611 848.934448,374.085022 850.890137,374.163910 
	C857.200928,374.418549 863.553650,374.353210 869.809692,375.092865 
	C882.408813,376.582397 889.867371,384.496826 891.099487,397.056915 
	C891.343262,399.542053 891.441772,402.041473 891.606201,405.524780 
M110.300140,411.281311 
	C111.443985,424.883301 112.645622,438.480774 113.717644,452.088409 
	C115.194824,470.838898 117.197128,489.577271 117.794441,508.358337 
	C118.256668,522.892029 111.689705,534.556763 98.366112,541.323181 
	C92.793457,544.153320 86.556534,545.651794 80.736885,548.036987 
	C79.411766,548.580078 77.678642,550.259216 77.639297,551.464600 
	C77.368202,559.770996 77.496712,568.090515 77.496712,576.635803 
	C79.873657,577.196167 81.968796,577.646606 84.041069,578.185120 
	C107.692917,584.331848 118.736626,598.152161 117.832527,622.509888 
	C117.184982,639.955688 114.870247,657.333557 113.611267,674.764282 
	C112.268669,693.352722 110.511200,711.962524 110.386276,730.572693 
	C110.271156,747.722534 116.299675,762.868652 130.626556,773.697937 
	C149.258713,787.781372 170.775787,784.888611 191.856476,784.826843 
	C191.856476,774.250000 191.856476,764.310181 191.856476,754.223999 
	C183.817795,753.837402 176.028854,753.666626 168.276138,753.044556 
	C155.076309,751.985352 146.972061,743.719238 145.894226,730.549683 
	C145.677063,727.896057 145.403625,725.209473 145.583160,722.567139 
	C146.812927,704.465759 148.221436,686.376587 149.445160,668.274841 
	C150.668640,650.176941 152.692337,632.067017 152.653610,613.966003 
	C152.600540,589.150940 139.867874,572.691528 116.890068,564.786499 
	C114.787598,564.063171 112.652084,563.435913 109.743965,562.514343 
	C112.645607,561.604004 114.690834,560.940063 116.749321,560.320129 
	C135.677475,554.619385 147.358582,542.072998 151.423508,522.795471 
	C152.613449,517.152344 153.188004,511.181458 152.813980,505.440979 
	C151.255646,481.523071 149.059280,457.647125 147.440079,433.732574 
	C146.563965,420.793335 145.684525,407.786041 146.079803,394.848358 
	C146.466690,382.185669 153.547745,375.013428 165.950806,372.877838 
	C170.669540,372.065369 175.543076,372.080261 180.352859,371.891266 
	C184.125443,371.743073 187.908508,371.861542 191.890045,371.861542 
	C191.890045,361.143036 191.890045,351.053345 191.890045,339.720856 
	C179.029129,340.469604 166.293854,340.152649 153.939316,342.168884 
	C133.438568,345.514465 119.166832,357.240082 112.931221,377.642487 
	C109.663345,388.334747 109.842415,399.323456 110.300140,411.281311 
z"/>
<path fill="#1BEDE6" opacity="1.000000" stroke="none" 
	d="
M891.606689,405.029541 
	C891.441772,402.041473 891.343262,399.542053 891.099487,397.056915 
	C889.867371,384.496826 882.408813,376.582397 869.809692,375.092865 
	C863.553650,374.353210 857.200928,374.418549 850.890137,374.163910 
	C848.934448,374.085022 846.972961,374.151611 844.744629,374.151611 
	C844.744629,363.549835 844.744629,353.461151 844.744629,342.920197 
	C860.908875,343.145782 876.960938,341.131622 892.422791,346.646210 
	C913.603149,354.200317 926.928589,372.421295 926.783997,396.197388 
	C926.660645,416.470703 924.717102,436.736969 923.447693,456.998138 
	C922.241638,476.247894 919.867310,495.486359 919.854370,514.731018 
	C919.842285,532.744080 931.253967,543.450012 947.662537,549.105652 
	C951.563782,550.450256 955.627136,551.324585 959.795776,552.464417 
	C959.795776,561.794312 959.795776,571.079346 959.795776,580.423401 
	C955.266174,581.794861 950.753052,582.887329 946.441528,584.513916 
	C926.997437,591.849487 917.719727,606.053894 919.323669,626.707397 
	C921.514526,654.918945 924.356079,683.082214 926.323364,711.307678 
	C927.095154,722.381653 927.399231,733.721497 925.924072,744.671936 
	C922.468506,770.324158 904.483643,787.267639 878.584290,789.677246 
	C867.540649,790.704651 856.321716,789.848877 844.827026,789.848877 
	C844.827026,779.715515 844.827026,769.644958 844.827026,758.848389 
	C849.636353,758.848389 854.401794,759.050598 859.141785,758.790771 
	C863.770142,758.537109 868.483643,758.275146 872.964539,757.201782 
	C884.028442,754.551514 890.650024,747.518738 890.917480,736.180359 
	C891.238281,722.575623 890.368713,708.916931 889.488953,695.315552 
	C887.888184,670.568359 885.662964,645.859863 884.242554,621.104004 
	C883.897095,615.082458 884.995056,608.757690 886.587158,602.886292 
	C891.539612,584.622314 903.884766,573.443359 921.770264,568.047546 
	C922.566650,567.807251 923.375610,567.608704 924.177551,567.386658 
	C924.971619,567.166931 925.764221,566.942139 927.599976,566.427063 
	C925.362427,565.691772 924.045837,565.209839 922.701477,564.824707 
	C898.472717,557.882507 884.304504,540.411621 884.334534,515.115112 
	C884.355591,497.339478 886.212585,479.559479 887.427490,461.793610 
	C888.710510,443.029816 890.204346,424.280457 891.606689,405.029541 
z"/>
<path fill="#1CEDE6" opacity="1.000000" stroke="none" 
	d="
M110.276489,410.802887 
	C109.842415,399.323456 109.663345,388.334747 112.931221,377.642487 
	C119.166832,357.240082 133.438568,345.514465 153.939316,342.168884 
	C166.293854,340.152649 179.029129,340.469604 191.890045,339.720856 
	C191.890045,351.053345 191.890045,361.143036 191.890045,371.861542 
	C187.908508,371.861542 184.125443,371.743073 180.352859,371.891266 
	C175.543076,372.080261 170.669540,372.065369 165.950806,372.877838 
	C153.547745,375.013428 146.466690,382.185669 146.079803,394.848358 
	C145.684525,407.786041 146.563965,420.793335 147.440079,433.732574 
	C149.059280,457.647125 151.255646,481.523071 152.813980,505.440979 
	C153.188004,511.181458 152.613449,517.152344 151.423508,522.795471 
	C147.358582,542.072998 135.677475,554.619385 116.749321,560.320129 
	C114.690834,560.940063 112.645607,561.604004 109.743965,562.514343 
	C112.652084,563.435913 114.787598,564.063171 116.890068,564.786499 
	C139.867874,572.691528 152.600540,589.150940 152.653610,613.966003 
	C152.692337,632.067017 150.668640,650.176941 149.445160,668.274841 
	C148.221436,686.376587 146.812927,704.465759 145.583160,722.567139 
	C145.403625,725.209473 145.677063,727.896057 145.894226,730.549683 
	C146.972061,743.719238 155.076309,751.985352 168.276138,753.044556 
	C176.028854,753.666626 183.817795,753.837402 191.856476,754.223999 
	C191.856476,764.310181 191.856476,774.250000 191.856476,784.826843 
	C170.775787,784.888611 149.258713,787.781372 130.626556,773.697937 
	C116.299675,762.868652 110.271156,747.722534 110.386276,730.572693 
	C110.511200,711.962524 112.268669,693.352722 113.611267,674.764282 
	C114.870247,657.333557 117.184982,639.955688 117.832527,622.509888 
	C118.736626,598.152161 107.692917,584.331848 84.041069,578.185120 
	C81.968796,577.646606 79.873657,577.196167 77.496712,576.635803 
	C77.496712,568.090515 77.368202,559.770996 77.639297,551.464600 
	C77.678642,550.259216 79.411766,548.580078 80.736885,548.036987 
	C86.556534,545.651794 92.793457,544.153320 98.366112,541.323181 
	C111.689705,534.556763 118.256668,522.892029 117.794441,508.358337 
	C117.197128,489.577271 115.194824,470.838898 113.717644,452.088409 
	C112.645622,438.480774 111.443985,424.883301 110.276489,410.802887 
z"/>
</svg>