<svg version="1.1" id="Layer_1" xmlns="http://www.w3.org/2000/svg" xmlns:xlink="http://www.w3.org/1999/xlink" x="0px" y="0px"
	 width="100%" viewBox="0 0 1024 1024" enable-background="new 0 0 1024 1024" xml:space="preserve">
<path fill="#FFFFFF" opacity="1.000000" stroke="none" 
	d="
M570.000000,1025.000000 
	C380.000000,1025.000000 190.500000,1025.000000 1.000000,1025.000000 
	C1.000000,683.666687 1.000000,342.333344 1.000000,1.000000 
	C342.333344,1.000000 683.666687,1.000000 1025.000000,1.000000 
	C1025.000000,342.333344 1025.000000,683.666687 1025.000000,1025.000000 
	C873.500000,1025.000000 722.000000,1025.000000 570.000000,1025.000000 
M884.857727,611.363464 
	C884.596069,614.844177 883.914124,618.352539 884.141724,621.800964 
	C885.501099,642.396729 887.070557,662.978577 888.568665,683.565186 
	C889.644226,698.344177 891.279602,713.108948 891.659729,727.905823 
	C892.206482,749.190125 882.272461,758.786560 860.973877,758.846436 
	C855.666687,758.861328 850.359314,758.848633 844.913452,758.848633 
	C844.913452,769.481384 844.913452,779.667786 844.913452,789.914429 
	C856.169678,789.914429 867.040222,790.622498 877.787415,789.771912 
	C902.734314,787.797546 921.650330,771.364197 925.495361,747.407898 
	C927.321960,736.027344 927.182251,724.131287 926.402893,712.572021 
	C924.499512,684.340393 921.555664,656.180725 919.314331,627.969543 
	C917.485046,604.945984 928.256836,589.628357 950.394104,583.061523 
	C953.524353,582.132935 956.707581,581.382690 959.733521,580.584961 
	C959.733521,570.880127 959.733521,561.599548 959.733521,552.356079 
	C957.055847,551.675293 954.629456,551.092041 952.221436,550.440979 
	C928.815247,544.111755 918.055603,530.061829 919.303223,506.035706 
	C920.165955,489.421906 922.312378,472.878876 923.479614,456.275726 
	C924.880005,436.354858 926.567322,416.411163 926.775574,396.463196 
	C926.939087,380.809296 921.422241,366.834778 908.968262,356.230499 
	C889.912903,340.005249 867.186279,342.994568 844.853333,342.988342 
	C844.853333,353.679993 844.853333,363.744263 844.853333,374.153076 
	C851.046875,374.153076 856.864441,374.046173 862.676880,374.172791 
	C881.228577,374.576965 890.817322,382.088409 891.056274,400.329803 
	C891.323425,420.724762 888.797729,441.156097 887.490784,461.571838 
	C886.363708,479.178680 884.407837,496.781403 884.314026,514.393860 
	C884.177246,540.100891 897.960754,557.417603 922.528320,564.741333 
	C923.919678,565.156067 925.290344,565.640381 927.873779,566.486389 
	C903.253357,572.229309 888.704285,586.259277 884.857727,611.363464 
M110.809578,709.153137 
	C110.895996,719.285522 109.959000,729.553467 111.279686,739.522339 
	C114.118942,760.953857 126.403397,775.192566 147.088989,781.966919 
	C161.705872,786.753845 176.724426,784.389648 191.839081,785.074707 
	C191.839081,774.447754 191.839081,764.394348 191.839081,754.231079 
	C183.777054,753.840210 175.984314,753.670898 168.229141,753.039978 
	C155.039093,751.966736 146.962296,743.694580 145.891144,730.506470 
	C145.675598,727.852661 145.403366,725.166016 145.583267,722.523499 
	C146.815445,704.424255 148.221390,686.336792 149.453247,668.237549 
	C150.673645,650.306824 152.683380,632.366272 152.675293,614.430786 
	C152.663864,589.031494 139.304718,571.851135 115.916252,564.430969 
	C114.132362,563.864990 112.329819,563.357849 109.607086,562.546692 
	C112.830002,561.526306 115.035110,560.811340 117.250389,560.129395 
	C134.502167,554.818970 146.025894,543.672363 150.556854,526.134949 
	C152.200836,519.771851 153.119720,512.937073 152.782669,506.399353 
	C151.746094,486.292389 149.873260,466.229828 148.458908,446.140625 
	C147.383560,430.866394 145.946503,415.587219 145.692703,400.293274 
	C145.375290,381.164978 154.804337,372.141571 173.872726,371.867584 
	C176.371506,371.831665 178.871246,371.861694 181.370544,371.861542 
	C184.814789,371.861328 188.259033,371.861481 191.880905,371.861481 
	C191.880905,361.130066 191.880905,351.040771 191.880905,341.076569 
	C180.851410,341.076569 170.021881,340.381836 159.310806,341.213196 
	C132.418045,343.300354 113.888771,361.467316 110.913620,387.928589 
	C108.548187,408.966919 111.889496,429.790833 113.527679,450.676117 
	C115.037231,469.921448 117.132874,489.148529 117.789780,508.423920 
	C118.285278,522.963379 111.664238,534.608643 98.327263,541.350952 
	C92.748947,544.170959 86.525215,545.694458 80.683609,548.029236 
	C79.428795,548.530762 77.677895,549.964294 77.647263,551.012085 
	C77.399628,559.479736 77.508377,567.957764 77.508377,576.376404 
	C81.929298,577.676086 85.972862,578.647766 89.863464,580.045349 
	C109.153389,586.974365 118.143318,599.657654 117.930763,620.136475 
	C117.844505,628.447449 117.145752,636.763855 116.446083,645.054199 
	C114.668571,666.115967 112.733147,687.164368 110.809578,709.153137 
M593.665405,653.904846 
	C592.568604,658.645813 591.471863,663.386780 590.375061,668.127686 
	C589.973755,668.119995 589.572449,668.112244 589.171204,668.104492 
	C584.883972,651.810730 580.596802,635.517029 576.311890,619.231934 
	C572.194946,619.231934 568.430603,619.231934 564.543030,619.231934 
	C560.297363,635.648376 556.100952,651.874084 551.904602,668.099792 
	C551.469666,668.068054 551.034729,668.036316 550.599792,668.004639 
	C547.043274,651.708008 543.486694,635.411438 539.942017,619.169067 
	C535.295898,619.169067 530.995117,619.169067 526.305420,619.169067 
	C531.676086,642.507202 536.988647,665.592651 542.323364,688.774658 
	C547.603394,688.774658 552.695374,688.774658 557.775269,688.774658 
	C561.689514,673.773682 565.546204,658.993103 569.402954,644.212524 
	C569.813538,644.247681 570.224182,644.282837 570.634766,644.317993 
	C574.714844,659.141113 578.794861,673.964233 582.887817,688.834229 
	C588.106323,688.834229 593.045349,688.834229 598.355225,688.834229 
	C603.679688,665.648926 608.984985,642.546814 614.339783,619.229492 
	C609.690552,619.229492 605.437744,619.229492 601.125671,619.229492 
	C598.664429,630.654541 596.249207,641.865906 593.665405,653.904846 
M731.360474,653.044128 
	C724.936279,642.747009 718.560608,632.418884 712.029602,622.190002 
	C711.160889,620.829407 709.575073,619.152222 708.198364,619.032227 
	C703.637329,618.634460 699.020020,618.882080 694.415283,618.882080 
	C694.415283,642.572693 694.415283,665.632141 694.415283,688.850464 
	C698.803650,688.850464 702.919373,688.850464 707.861084,688.850464 
	C707.861084,672.818665 707.861084,656.910156 707.861084,641.001587 
	C709.803467,642.257874 710.728333,643.610291 711.590027,645.001770 
	C719.993347,658.571350 728.360718,672.163452 736.823425,685.695862 
	C737.628174,686.982666 738.934204,688.739441 740.139343,688.850647 
	C744.347839,689.239136 748.614136,689.001099 752.638428,689.001099 
	C752.638428,665.199341 752.638428,642.125793 752.638428,619.128357 
	C748.219421,619.128357 744.120789,619.128357 739.373108,619.128357 
	C739.373108,634.169800 739.373108,648.970215 739.373108,663.770630 
	C739.008118,663.857910 738.643188,663.945251 738.278198,664.032532 
	C736.116272,660.565613 733.954407,657.098694 731.360474,653.044128 
M428.085724,624.610840 
	C428.085724,637.652161 428.085724,650.693481 428.085724,663.734802 
	C426.129425,662.739624 425.153015,661.514709 424.327637,660.195312 
	C416.388611,647.504700 408.503265,634.780273 400.510468,622.123657 
	C399.709015,620.854492 398.362091,619.141724 397.161804,619.051514 
	C392.429413,618.695801 387.654510,618.905640 383.121155,618.905640 
	C383.121155,642.652100 383.121155,665.719177 383.121155,688.775879 
	C387.533386,688.775879 391.625916,688.775879 396.247803,688.775879 
	C396.247803,672.721924 396.247803,656.888123 396.247803,641.054260 
	C398.141266,642.000183 399.050354,643.276245 399.872467,644.606079 
	C408.355774,658.328064 416.888641,672.020203 425.238770,685.822937 
	C426.719543,688.270752 428.334717,689.276855 431.169037,689.061218 
	C434.428711,688.813293 437.721710,689.003723 441.074890,689.003723 
	C441.074890,665.419495 441.074890,642.309570 441.074890,619.086182 
	C436.760864,619.086182 432.653229,619.086182 428.085724,619.086182 
	C428.085724,620.731323 428.085724,622.184082 428.085724,624.610840 
M258.642090,675.107544 
	C256.882202,672.734863 254.425262,670.607239 253.489197,667.944885 
	C250.307251,658.894836 250.254547,649.580383 253.401978,640.504089 
	C255.624420,634.095215 260.623322,630.707336 267.359985,630.087891 
	C275.362274,629.352051 282.329742,631.081360 286.394653,639.185669 
	C290.281250,636.885376 293.775177,634.817444 297.252228,632.759521 
	C292.804474,622.901794 284.729095,619.700928 275.413818,618.376099 
	C256.897888,615.742676 242.268082,625.081787 238.320892,642.286621 
	C236.195541,651.550537 236.585907,660.872314 239.204666,669.962585 
	C242.013962,679.714294 247.934067,686.771240 258.283783,689.034729 
	C268.591858,691.289185 277.816010,690.034973 284.315918,678.416992 
	C284.591797,682.937988 284.773071,685.908997 284.938293,688.617249 
	C289.492371,688.617249 293.559875,688.617249 297.580200,688.617249 
	C297.580200,675.640991 297.580200,663.039795 297.580200,650.302002 
	C287.483185,650.302002 277.611908,650.302002 267.717010,650.302002 
	C267.717010,654.026489 267.717010,657.431274 267.717010,661.149292 
	C270.636932,661.149292 273.279755,661.149292 275.922546,661.149292 
	C278.517944,661.149292 281.113312,661.149292 283.644287,661.149292 
	C284.520813,671.257507 281.343597,677.057312 273.730194,677.622681 
	C268.977173,677.975647 264.076355,676.338989 258.642090,675.107544 
M456.890686,646.315002 
	C456.908173,651.796326 456.465363,657.326904 457.045349,662.748047 
	C458.049866,672.136841 461.319977,680.635925 469.830078,685.921753 
	C481.449341,693.138794 492.940460,691.007141 503.721069,679.460022 
	C503.721069,682.817444 503.721069,685.686707 503.721069,688.676025 
	C508.434113,688.676025 512.642334,688.676025 516.719849,688.676025 
	C516.719849,675.629761 516.719849,662.897522 516.719849,650.183105 
	C506.634399,650.183105 496.863098,650.183105 486.936951,650.183105 
	C486.936951,653.836060 486.936951,657.298035 486.936951,661.183533 
	C492.363800,661.183533 497.632568,661.183533 503.054199,661.183533 
	C503.474854,667.260986 503.263916,672.701538 497.709412,676.079773 
	C488.149384,681.894165 475.194214,677.071716 472.147949,666.418030 
	C469.864441,658.431824 469.851440,650.266357 472.070892,642.243591 
	C474.207581,634.520020 479.808838,630.427368 487.754608,629.991638 
	C495.473419,629.568420 501.838196,631.738037 505.699646,639.168091 
	C509.521118,636.878357 512.900146,634.853699 516.371399,632.773743 
	C514.256409,627.386475 510.707550,623.889526 505.890839,621.547180 
	C484.200439,610.999268 461.788116,621.942261 456.890686,646.315002 
M639.787842,536.494019 
	C639.787842,530.743286 639.787842,524.992554 639.787842,519.269165 
	C650.659973,519.269165 660.920288,519.269165 671.582397,519.269165 
	C671.582397,529.948975 671.582397,540.375366 671.582397,550.765930 
	C676.259705,550.765930 680.528198,550.765930 684.894714,550.765930 
	C684.894714,527.448059 684.894714,504.375671 684.894714,481.255310 
	C680.335388,481.255310 675.986633,481.255310 671.238403,481.255310 
	C671.238403,490.036407 671.238403,498.448547 671.238403,506.934631 
	C660.593628,506.934631 650.360168,506.934631 639.581787,506.934631 
	C639.581787,498.142365 639.581787,489.598389 639.581787,481.136292 
	C634.769958,481.136292 630.508423,481.136292 626.144897,481.136292 
	C626.144897,504.465576 626.144897,527.537537 626.144897,550.702148 
	C630.729858,550.702148 635.108704,550.702148 639.787842,550.702148 
	C639.787842,546.094238 639.787842,541.791626 639.787842,536.494019 
M665.194824,676.265564 
	C666.626587,680.464783 668.058350,684.664062 669.458252,688.769775 
	C674.367004,688.769775 678.938477,688.769775 683.850159,688.769775 
	C675.703491,665.309265 667.668396,642.169800 659.651550,619.083008 
	C653.576050,619.083008 647.931580,619.083008 641.921753,619.083008 
	C633.895142,642.203796 625.853882,665.366882 617.708008,688.831177 
	C622.617065,688.831177 627.068726,688.831177 631.794128,688.831177 
	C633.218933,684.518066 634.518372,680.069824 636.217163,675.779724 
	C636.679810,674.611633 638.321350,673.167480 639.462341,673.131348 
	C646.945618,672.894653 654.442383,672.915771 661.927673,673.118103 
	C662.960266,673.145996 663.953186,674.640869 665.194824,676.265564 
M399.947571,521.306763 
	C396.573853,531.077393 393.200134,540.847961 389.762695,550.803223 
	C394.885223,550.803223 399.326477,550.803223 403.775879,550.803223 
	C405.586426,545.461914 407.335876,540.300720 409.039246,535.275635 
	C418.284882,535.275635 427.208069,535.275635 436.204529,535.275635 
	C438.017853,540.619568 439.759583,545.752625 441.455658,550.751038 
	C446.387970,550.751038 450.949707,550.751038 455.845764,550.751038 
	C447.692566,527.276550 439.656219,504.138458 431.654022,481.098755 
	C425.529785,481.098755 419.890198,481.098755 413.954559,481.098755 
	C409.355011,494.249695 404.755981,507.399109 399.947571,521.306763 
M315.856628,661.135254 
	C312.675293,670.291931 309.493958,679.448608 306.172791,689.007751 
	C310.316498,689.007751 313.840515,689.313171 317.265198,688.862915 
	C318.708893,688.673096 320.562622,687.156433 321.155823,685.779968 
	C322.907898,681.714417 324.123810,677.417847 325.558838,673.184082 
	C334.768036,673.184082 343.714844,673.184082 352.679565,673.184082 
	C354.485535,678.506287 356.239838,683.676331 357.960388,688.746765 
	C362.793671,688.746765 367.353912,688.746765 372.341461,688.746765 
	C364.177429,665.240295 356.141388,642.102417 348.202332,619.243652 
	C341.872864,619.243652 336.098236,619.243652 330.382812,619.243652 
	C325.544922,633.112366 320.790955,646.740356 315.856628,661.135254 
M610.093079,541.443481 
	C616.975525,526.573120 611.052002,514.052429 595.209106,510.125092 
	C590.857483,509.046387 586.400208,508.377747 582.076782,507.206207 
	C576.482910,505.690399 574.331909,503.003113 574.946167,498.618683 
	C575.646912,493.616913 579.495544,492.531952 583.650146,492.036804 
	C590.931580,491.169037 597.382568,493.145996 602.980103,498.465118 
	C605.505066,495.020538 607.742126,491.968628 610.161133,488.668549 
	C601.249329,480.074402 590.667175,478.992432 579.441406,480.789062 
	C568.378479,482.559662 562.012268,489.059631 561.301758,498.867645 
	C560.589966,508.693298 566.045654,515.878357 576.927307,519.085815 
	C581.541077,520.445679 586.319702,521.243042 590.942200,522.577515 
	C597.003601,524.327393 599.447144,527.601501 598.724548,532.430542 
	C598.024841,537.105896 594.421631,539.661621 588.493042,539.984253 
	C579.591614,540.468811 572.836914,536.561279 567.292603,529.286133 
	C564.356567,532.811340 561.755493,535.934448 559.025208,539.212585 
	C560.715942,541.097168 561.881287,542.755371 563.383118,544.010986 
	C572.164490,551.352783 582.449402,552.849060 593.413696,551.441833 
	C600.130432,550.579773 605.870728,547.956665 610.093079,541.443481 
M503.660675,537.325623 
	C509.947510,518.691223 516.234375,500.056824 522.601807,481.183533 
	C517.440002,481.183533 512.977966,481.183533 508.452118,481.183533 
	C502.803619,498.594452 497.204712,515.852661 491.605774,533.110840 
	C491.183868,533.119934 490.761993,533.129089 490.340088,533.138184 
	C484.616974,515.780823 478.893860,498.423401 473.232574,481.253479 
	C468.223389,481.253479 463.656281,481.253479 458.672882,481.253479 
	C466.629303,504.673309 474.462372,527.730103 482.313690,550.840576 
	C487.932770,550.840576 493.377930,550.840576 499.032379,550.840576 
	C500.482788,546.514465 501.904663,542.273438 503.660675,537.325623 
M354.397919,530.513306 
	C354.397919,514.086060 354.397919,497.658844 354.397919,481.192688 
	C349.633362,481.192688 345.359253,481.192688 340.955597,481.192688 
	C340.955597,504.481323 340.955597,527.571594 340.955597,550.766846 
	C355.998383,550.766846 370.886169,550.766846 385.811890,550.766846 
	C385.811890,546.959167 385.811890,543.396301 385.811890,539.354248 
	C375.319550,539.354248 365.084320,539.354248 354.397858,539.354248 
	C354.397858,536.422546 354.397858,533.970581 354.397919,530.513306 
M547.026367,494.506622 
	C547.026367,490.062714 547.026367,485.618774 547.026367,481.223816 
	C542.151978,481.223816 537.775818,481.223816 533.424438,481.223816 
	C533.424438,504.609589 533.424438,527.653687 533.424438,550.691162 
	C538.095032,550.691162 542.483154,550.691162 547.026367,550.691162 
	C547.026367,532.084534 547.026367,513.794189 547.026367,494.506622 
M785.143372,657.500061 
	C785.143372,644.741699 785.143372,631.983337 785.143372,619.117798 
	C780.391541,619.117798 776.139648,619.117798 771.702332,619.117798 
	C771.702332,642.408752 771.702332,665.475891 771.702332,688.704956 
	C776.175842,688.704956 780.568237,688.704956 785.143372,688.704956 
	C785.143372,678.440674 785.143372,668.470398 785.143372,657.500061 
z"/>
<path fill="#1BEDE6" opacity="1.000000" stroke="none" 
	d="
M884.902527,610.925232 
	C888.704285,586.259277 903.253357,572.229309 927.873779,566.486389 
	C925.290344,565.640381 923.919678,565.156067 922.528320,564.741333 
	C897.960754,557.417603 884.177246,540.100891 884.314026,514.393860 
	C884.407837,496.781403 886.363708,479.178680 887.490784,461.571838 
	C888.797729,441.156097 891.323425,420.724762 891.056274,400.329803 
	C890.817322,382.088409 881.228577,374.576965 862.676880,374.172791 
	C856.864441,374.046173 851.046875,374.153076 844.853333,374.153076 
	C844.853333,363.744263 844.853333,353.679993 844.853333,342.988342 
	C867.186279,342.994568 889.912903,340.005249 908.968262,356.230499 
	C921.422241,366.834778 926.939087,380.809296 926.775574,396.463196 
	C926.567322,416.411163 924.880005,436.354858 923.479614,456.275726 
	C922.312378,472.878876 920.165955,489.421906 919.303223,506.035706 
	C918.055603,530.061829 928.815247,544.111755 952.221436,550.440979 
	C954.629456,551.092041 957.055847,551.675293 959.733521,552.356079 
	C959.733521,561.599548 959.733521,570.880127 959.733521,580.584961 
	C956.707581,581.382690 953.524353,582.132935 950.394104,583.061523 
	C928.256836,589.628357 917.485046,604.945984 919.314331,627.969543 
	C921.555664,656.180725 924.499512,684.340393 926.402893,712.572021 
	C927.182251,724.131287 927.321960,736.027344 925.495361,747.407898 
	C921.650330,771.364197 902.734314,787.797546 877.787415,789.771912 
	C867.040222,790.622498 856.169678,789.914429 844.913452,789.914429 
	C844.913452,779.667786 844.913452,769.481384 844.913452,758.848633 
	C850.359314,758.848633 855.666687,758.861328 860.973877,758.846436 
	C882.272461,758.786560 892.206482,749.190125 891.659729,727.905823 
	C891.279602,713.108948 889.644226,698.344177 888.568665,683.565186 
	C887.070557,662.978577 885.501099,642.396729 884.141724,621.800964 
	C883.914124,618.352539 884.596069,614.844177 884.902527,610.925232 
z"/>
<path fill="#1CEDE6" opacity="1.000000" stroke="none" 
	d="
M110.835258,708.685669 
	C112.733147,687.164368 114.668571,666.115967 116.446083,645.054199 
	C117.145752,636.763855 117.844505,628.447449 117.930763,620.136475 
	C118.143318,599.657654 109.153389,586.974365 89.863464,580.045349 
	C85.972862,578.647766 81.929298,577.676086 77.508377,576.376404 
	C77.508377,567.957764 77.399628,559.479736 77.647263,551.012085 
	C77.677895,549.964294 79.428795,548.530762 80.683609,548.029236 
	C86.525215,545.694458 92.748947,544.170959 98.327263,541.350952 
	C111.664238,534.608643 118.285278,522.963379 117.789780,508.423920 
	C117.132874,489.148529 115.037231,469.921448 113.527679,450.676117 
	C111.889496,429.790833 108.548187,408.966919 110.913620,387.928589 
	C113.888771,361.467316 132.418045,343.300354 159.310806,341.213196 
	C170.021881,340.381836 180.851410,341.076569 191.880905,341.076569 
	C191.880905,351.040771 191.880905,361.130066 191.880905,371.861481 
	C188.259033,371.861481 184.814789,371.861328 181.370544,371.861542 
	C178.871246,371.861694 176.371506,371.831665 173.872726,371.867584 
	C154.804337,372.141571 145.375290,381.164978 145.692703,400.293274 
	C145.946503,415.587219 147.383560,430.866394 148.458908,446.140625 
	C149.873260,466.229828 151.746094,486.292389 152.782669,506.399353 
	C153.119720,512.937073 152.200836,519.771851 150.556854,526.134949 
	C146.025894,543.672363 134.502167,554.818970 117.250389,560.129395 
	C115.035110,560.811340 112.830002,561.526306 109.607086,562.546692 
	C112.329819,563.357849 114.132362,563.864990 115.916252,564.430969 
	C139.304718,571.851135 152.663864,589.031494 152.675293,614.430786 
	C152.683380,632.366272 150.673645,650.306824 149.453247,668.237549 
	C148.221390,686.336792 146.815445,704.424255 145.583267,722.523499 
	C145.403366,725.166016 145.675598,727.852661 145.891144,730.506470 
	C146.962296,743.694580 155.039093,751.966736 168.229141,753.039978 
	C175.984314,753.670898 183.777054,753.840210 191.839081,754.231079 
	C191.839081,764.394348 191.839081,774.447754 191.839081,785.074707 
	C176.724426,784.389648 161.705872,786.753845 147.088989,781.966919 
	C126.403397,775.192566 114.118942,760.953857 111.279686,739.522339 
	C109.959000,729.553467 110.895996,719.285522 110.835258,708.685669 
z"/>
<path fill="#040404" opacity="1.000000" stroke="none" 
	d="
M593.749634,653.491089 
	C596.249207,641.865906 598.664429,630.654541 601.125671,619.229492 
	C605.437744,619.229492 609.690552,619.229492 614.339783,619.229492 
	C608.984985,642.546814 603.679688,665.648926 598.355225,688.834229 
	C593.045349,688.834229 588.106323,688.834229 582.887817,688.834229 
	C578.794861,673.964233 574.714844,659.141113 570.634766,644.317993 
	C570.224182,644.282837 569.813538,644.247681 569.402954,644.212524 
	C565.546204,658.993103 561.689514,673.773682 557.775269,688.774658 
	C552.695374,688.774658 547.603394,688.774658 542.323364,688.774658 
	C536.988647,665.592651 531.676086,642.507202 526.305420,619.169067 
	C530.995117,619.169067 535.295898,619.169067 539.942017,619.169067 
	C543.486694,635.411438 547.043274,651.708008 550.599792,668.004639 
	C551.034729,668.036316 551.469666,668.068054 551.904602,668.099792 
	C556.100952,651.874084 560.297363,635.648376 564.543030,619.231934 
	C568.430603,619.231934 572.194946,619.231934 576.311890,619.231934 
	C580.596802,635.517029 584.883972,651.810730 589.171204,668.104492 
	C589.572449,668.112244 589.973755,668.119995 590.375061,668.127686 
	C591.471863,663.386780 592.568604,658.645813 593.749634,653.491089 
z"/>
<path fill="#060606" opacity="1.000000" stroke="none" 
	d="
M731.576477,653.337952 
	C733.954407,657.098694 736.116272,660.565613 738.278198,664.032532 
	C738.643188,663.945251 739.008118,663.857910 739.373108,663.770630 
	C739.373108,648.970215 739.373108,634.169800 739.373108,619.128357 
	C744.120789,619.128357 748.219421,619.128357 752.638428,619.128357 
	C752.638428,642.125793 752.638428,665.199341 752.638428,689.001099 
	C748.614136,689.001099 744.347839,689.239136 740.139343,688.850647 
	C738.934204,688.739441 737.628174,686.982666 736.823425,685.695862 
	C728.360718,672.163452 719.993347,658.571350 711.590027,645.001770 
	C710.728333,643.610291 709.803467,642.257874 707.861084,641.001587 
	C707.861084,656.910156 707.861084,672.818665 707.861084,688.850464 
	C702.919373,688.850464 698.803650,688.850464 694.415283,688.850464 
	C694.415283,665.632141 694.415283,642.572693 694.415283,618.882080 
	C699.020020,618.882080 703.637329,618.634460 708.198364,619.032227 
	C709.575073,619.152222 711.160889,620.829407 712.029602,622.190002 
	C718.560608,632.418884 724.936279,642.747009 731.576477,653.337952 
z"/>
<path fill="#020202" opacity="1.000000" stroke="none" 
	d="
M428.085724,624.123840 
	C428.085724,622.184082 428.085724,620.731323 428.085724,619.086182 
	C432.653229,619.086182 436.760864,619.086182 441.074890,619.086182 
	C441.074890,642.309570 441.074890,665.419495 441.074890,689.003723 
	C437.721710,689.003723 434.428711,688.813293 431.169037,689.061218 
	C428.334717,689.276855 426.719543,688.270752 425.238770,685.822937 
	C416.888641,672.020203 408.355774,658.328064 399.872467,644.606079 
	C399.050354,643.276245 398.141266,642.000183 396.247803,641.054260 
	C396.247803,656.888123 396.247803,672.721924 396.247803,688.775879 
	C391.625916,688.775879 387.533386,688.775879 383.121155,688.775879 
	C383.121155,665.719177 383.121155,642.652100 383.121155,618.905640 
	C387.654510,618.905640 392.429413,618.695801 397.161804,619.051514 
	C398.362091,619.141724 399.709015,620.854492 400.510468,622.123657 
	C408.503265,634.780273 416.388611,647.504700 424.327637,660.195312 
	C425.153015,661.514709 426.129425,662.739624 428.085724,663.734802 
	C428.085724,650.693481 428.085724,637.652161 428.085724,624.123840 
z"/>
<path fill="#060606" opacity="1.000000" stroke="none" 
	d="
M258.941986,675.351318 
	C264.076355,676.338989 268.977173,677.975647 273.730194,677.622681 
	C281.343597,677.057312 284.520813,671.257507 283.644287,661.149292 
	C281.113312,661.149292 278.517944,661.149292 275.922546,661.149292 
	C273.279755,661.149292 270.636932,661.149292 267.717010,661.149292 
	C267.717010,657.431274 267.717010,654.026489 267.717010,650.302002 
	C277.611908,650.302002 287.483185,650.302002 297.580200,650.302002 
	C297.580200,663.039795 297.580200,675.640991 297.580200,688.617249 
	C293.559875,688.617249 289.492371,688.617249 284.938293,688.617249 
	C284.773071,685.908997 284.591797,682.937988 284.315918,678.416992 
	C277.816010,690.034973 268.591858,691.289185 258.283783,689.034729 
	C247.934067,686.771240 242.013962,679.714294 239.204666,669.962585 
	C236.585907,660.872314 236.195541,651.550537 238.320892,642.286621 
	C242.268082,625.081787 256.897888,615.742676 275.413818,618.376099 
	C284.729095,619.700928 292.804474,622.901794 297.252228,632.759521 
	C293.775177,634.817444 290.281250,636.885376 286.394653,639.185669 
	C282.329742,631.081360 275.362274,629.352051 267.359985,630.087891 
	C260.623322,630.707336 255.624420,634.095215 253.401978,640.504089 
	C250.254547,649.580383 250.307251,658.894836 253.489197,667.944885 
	C254.425262,670.607239 256.882202,672.734863 258.941986,675.351318 
z"/>
<path fill="#040404" opacity="1.000000" stroke="none" 
	d="
M456.923279,645.882812 
	C461.788116,621.942261 484.200439,610.999268 505.890839,621.547180 
	C510.707550,623.889526 514.256409,627.386475 516.371399,632.773743 
	C512.900146,634.853699 509.521118,636.878357 505.699646,639.168091 
	C501.838196,631.738037 495.473419,629.568420 487.754608,629.991638 
	C479.808838,630.427368 474.207581,634.520020 472.070892,642.243591 
	C469.851440,650.266357 469.864441,658.431824 472.147949,666.418030 
	C475.194214,677.071716 488.149384,681.894165 497.709412,676.079773 
	C503.263916,672.701538 503.474854,667.260986 503.054199,661.183533 
	C497.632568,661.183533 492.363800,661.183533 486.936951,661.183533 
	C486.936951,657.298035 486.936951,653.836060 486.936951,650.183105 
	C496.863098,650.183105 506.634399,650.183105 516.719849,650.183105 
	C516.719849,662.897522 516.719849,675.629761 516.719849,688.676025 
	C512.642334,688.676025 508.434113,688.676025 503.721069,688.676025 
	C503.721069,685.686707 503.721069,682.817444 503.721069,679.460022 
	C492.940460,691.007141 481.449341,693.138794 469.830078,685.921753 
	C461.319977,680.635925 458.049866,672.136841 457.045349,662.748047 
	C456.465363,657.326904 456.908173,651.796326 456.923279,645.882812 
z"/>
<path fill="#060606" opacity="1.000000" stroke="none" 
	d="
M639.787842,536.991516 
	C639.787842,541.791626 639.787842,546.094238 639.787842,550.702148 
	C635.108704,550.702148 630.729858,550.702148 626.144897,550.702148 
	C626.144897,527.537537 626.144897,504.465576 626.144897,481.136292 
	C630.508423,481.136292 634.769958,481.136292 639.581787,481.136292 
	C639.581787,489.598389 639.581787,498.142365 639.581787,506.934631 
	C650.360168,506.934631 660.593628,506.934631 671.238403,506.934631 
	C671.238403,498.448547 671.238403,490.036407 671.238403,481.255310 
	C675.986633,481.255310 680.335388,481.255310 684.894714,481.255310 
	C684.894714,504.375671 684.894714,527.448059 684.894714,550.765930 
	C680.528198,550.765930 676.259705,550.765930 671.582397,550.765930 
	C671.582397,540.375366 671.582397,529.948975 671.582397,519.269165 
	C660.920288,519.269165 650.659973,519.269165 639.787842,519.269165 
	C639.787842,524.992554 639.787842,530.743286 639.787842,536.991516 
z"/>
<path fill="#050505" opacity="1.000000" stroke="none" 
	d="
M665.079651,675.861084 
	C663.953186,674.640869 662.960266,673.145996 661.927673,673.118103 
	C654.442383,672.915771 646.945618,672.894653 639.462341,673.131348 
	C638.321350,673.167480 636.679810,674.611633 636.217163,675.779724 
	C634.518372,680.069824 633.218933,684.518066 631.794128,688.831177 
	C627.068726,688.831177 622.617065,688.831177 617.708008,688.831177 
	C625.853882,665.366882 633.895142,642.203796 641.921753,619.083008 
	C647.931580,619.083008 653.576050,619.083008 659.651550,619.083008 
	C667.668396,642.169800 675.703491,665.309265 683.850159,688.769775 
	C678.938477,688.769775 674.367004,688.769775 669.458252,688.769775 
	C668.058350,684.664062 666.626587,680.464783 665.079651,675.861084 
M657.877380,653.680237 
	C655.618896,646.983276 653.360352,640.286377 651.101807,633.589478 
	C650.678894,633.652283 650.255981,633.715088 649.833069,633.777954 
	C646.887695,642.795044 643.942322,651.812134 640.937378,661.011597 
	C647.564575,661.011597 653.698914,661.011597 660.195068,661.011597 
	C659.381165,658.524048 658.718689,656.499146 657.877380,653.680237 
z"/>
<path fill="#050505" opacity="1.000000" stroke="none" 
	d="
M400.052246,520.927612 
	C404.755981,507.399109 409.355011,494.249695 413.954559,481.098755 
	C419.890198,481.098755 425.529785,481.098755 431.654022,481.098755 
	C439.656219,504.138458 447.692566,527.276550 455.845764,550.751038 
	C450.949707,550.751038 446.387970,550.751038 441.455658,550.751038 
	C439.759583,545.752625 438.017853,540.619568 436.204529,535.275635 
	C427.208069,535.275635 418.284882,535.275635 409.039246,535.275635 
	C407.335876,540.300720 405.586426,545.461914 403.775879,550.803223 
	C399.326477,550.803223 394.885223,550.803223 389.762695,550.803223 
	C393.200134,540.847961 396.573853,531.077393 400.052246,520.927612 
M431.362152,520.417603 
	C428.630280,512.126404 425.898407,503.835205 423.166504,495.544006 
	C422.757538,495.554504 422.348572,495.565002 421.939606,495.575500 
	C418.956970,504.634796 415.974335,513.694092 412.778076,523.402344 
	C418.905182,523.402344 424.524994,523.462341 430.138794,523.306458 
	C430.681091,523.291443 431.186249,521.937866 431.362152,520.417603 
z"/>
<path fill="#040404" opacity="1.000000" stroke="none" 
	d="
M315.946838,660.751831 
	C320.790955,646.740356 325.544922,633.112366 330.382812,619.243652 
	C336.098236,619.243652 341.872864,619.243652 348.202332,619.243652 
	C356.141388,642.102417 364.177429,665.240295 372.341461,688.746765 
	C367.353912,688.746765 362.793671,688.746765 357.960388,688.746765 
	C356.239838,683.676331 354.485535,678.506287 352.679565,673.184082 
	C343.714844,673.184082 334.768036,673.184082 325.558838,673.184082 
	C324.123810,677.417847 322.907898,681.714417 321.155823,685.779968 
	C320.562622,687.156433 318.708893,688.673096 317.265198,688.862915 
	C313.840515,689.313171 310.316498,689.007751 306.172791,689.007751 
	C309.493958,679.448608 312.675293,670.291931 315.946838,660.751831 
M346.973785,655.662415 
	C344.522003,648.294922 342.070190,640.927490 339.618408,633.559998 
	C339.181915,633.643555 338.745392,633.727112 338.308899,633.810669 
	C335.374359,642.835571 332.439850,651.860535 329.448822,661.059204 
	C336.251038,661.059204 342.311188,661.059204 348.659576,661.059204 
	C348.085083,659.255737 347.641296,657.862610 346.973785,655.662415 
z"/>
<path fill="#050505" opacity="1.000000" stroke="none" 
	d="
M609.919067,541.771484 
	C605.870728,547.956665 600.130432,550.579773 593.413696,551.441833 
	C582.449402,552.849060 572.164490,551.352783 563.383118,544.010986 
	C561.881287,542.755371 560.715942,541.097168 559.025208,539.212585 
	C561.755493,535.934448 564.356567,532.811340 567.292603,529.286133 
	C572.836914,536.561279 579.591614,540.468811 588.493042,539.984253 
	C594.421631,539.661621 598.024841,537.105896 598.724548,532.430542 
	C599.447144,527.601501 597.003601,524.327393 590.942200,522.577515 
	C586.319702,521.243042 581.541077,520.445679 576.927307,519.085815 
	C566.045654,515.878357 560.589966,508.693298 561.301758,498.867645 
	C562.012268,489.059631 568.378479,482.559662 579.441406,480.789062 
	C590.667175,478.992432 601.249329,480.074402 610.161133,488.668549 
	C607.742126,491.968628 605.505066,495.020538 602.980103,498.465118 
	C597.382568,493.145996 590.931580,491.169037 583.650146,492.036804 
	C579.495544,492.531952 575.646912,493.616913 574.946167,498.618683 
	C574.331909,503.003113 576.482910,505.690399 582.076782,507.206207 
	C586.400208,508.377747 590.857483,509.046387 595.209106,510.125092 
	C611.052002,514.052429 616.975525,526.573120 609.919067,541.771484 
z"/>
<path fill="#040404" opacity="1.000000" stroke="none" 
	d="
M503.493591,537.679016 
	C501.904663,542.273438 500.482788,546.514465 499.032379,550.840576 
	C493.377930,550.840576 487.932770,550.840576 482.313690,550.840576 
	C474.462372,527.730103 466.629303,504.673309 458.672882,481.253479 
	C463.656281,481.253479 468.223389,481.253479 473.232574,481.253479 
	C478.893860,498.423401 484.616974,515.780823 490.340088,533.138184 
	C490.761993,533.129089 491.183868,533.119934 491.605774,533.110840 
	C497.204712,515.852661 502.803619,498.594452 508.452118,481.183533 
	C512.977966,481.183533 517.440002,481.183533 522.601807,481.183533 
	C516.234375,500.056824 509.947510,518.691223 503.493591,537.679016 
z"/>
<path fill="#030303" opacity="1.000000" stroke="none" 
	d="
M354.397888,531.015991 
	C354.397858,533.970581 354.397858,536.422546 354.397858,539.354248 
	C365.084320,539.354248 375.319550,539.354248 385.811890,539.354248 
	C385.811890,543.396301 385.811890,546.959167 385.811890,550.766846 
	C370.886169,550.766846 355.998383,550.766846 340.955597,550.766846 
	C340.955597,527.571594 340.955597,504.481323 340.955597,481.192688 
	C345.359253,481.192688 349.633362,481.192688 354.397919,481.192688 
	C354.397919,497.658844 354.397919,514.086060 354.397888,531.015991 
z"/>
<path fill="#040404" opacity="1.000000" stroke="none" 
	d="
M547.026367,495.005219 
	C547.026367,513.794189 547.026367,532.084534 547.026367,550.691162 
	C542.483154,550.691162 538.095032,550.691162 533.424438,550.691162 
	C533.424438,527.653687 533.424438,504.609589 533.424438,481.223816 
	C537.775818,481.223816 542.151978,481.223816 547.026367,481.223816 
	C547.026367,485.618774 547.026367,490.062714 547.026367,495.005219 
z"/>
<path fill="#000000" opacity="1.000000" stroke="none" 
	d="
M785.143372,658.000122 
	C785.143372,668.470398 785.143372,678.440674 785.143372,688.704956 
	C780.568237,688.704956 776.175842,688.704956 771.702332,688.704956 
	C771.702332,665.475891 771.702332,642.408752 771.702332,619.117798 
	C776.139648,619.117798 780.391541,619.117798 785.143372,619.117798 
	C785.143372,631.983337 785.143372,644.741699 785.143372,658.000122 
z"/>
<path fill="#F8F8F8" opacity="1.000000" stroke="none" 
	d="
M657.966797,654.077271 
	C658.718689,656.499146 659.381165,658.524048 660.195068,661.011597 
	C653.698914,661.011597 647.564575,661.011597 640.937378,661.011597 
	C643.942322,651.812134 646.887695,642.795044 649.833069,633.777954 
	C650.255981,633.715088 650.678894,633.652283 651.101807,633.589478 
	C653.360352,640.286377 655.618896,646.983276 657.966797,654.077271 
z"/>
<path fill="#F8F8F8" opacity="1.000000" stroke="none" 
	d="
M431.535400,520.811646 
	C431.186249,521.937866 430.681091,523.291443 430.138794,523.306458 
	C424.524994,523.462341 418.905182,523.402344 412.778076,523.402344 
	C415.974335,513.694092 418.956970,504.634796 421.939606,495.575500 
	C422.348572,495.565002 422.757538,495.554504 423.166504,495.544006 
	C425.898407,503.835205 428.630280,512.126404 431.535400,520.811646 
z"/>
<path fill="#F8F8F8" opacity="1.000000" stroke="none" 
	d="
M347.085632,656.065918 
	C347.641296,657.862610 348.085083,659.255737 348.659576,661.059204 
	C342.311188,661.059204 336.251038,661.059204 329.448822,661.059204 
	C332.439850,651.860535 335.374359,642.835571 338.308899,633.810669 
	C338.745392,633.727112 339.181915,633.643555 339.618408,633.559998 
	C342.070190,640.927490 344.522003,648.294922 347.085632,656.065918 
z"/>
</svg>