<?xml version="1.0" standalone="no"?>
<!DOCTYPE svg PUBLIC "-//W3C//DTD SVG 20010904//EN"
 "http://www.w3.org/TR/2001/REC-SVG-20010904/DTD/svg10.dtd">
<svg version="1.0" xmlns="http://www.w3.org/2000/svg"
 width="1280.000000pt" height="1280.000000pt" viewBox="0 0 1280.000000 1280.000000"
 preserveAspectRatio="xMidYMid meet">
<metadata>
Created by potrace 1.16, written by Peter Selinger 2001-2019
</metadata>
<g transform="translate(0.000000,1280.000000) scale(0.100000,-0.100000)"
fill="#000000" stroke="none">
<path d="M8343 9587 c-29 -6 -53 -14 -53 -19 0 -4 -7 -8 -15 -8 -8 0 -15 -6
-15 -13 0 -7 -9 -19 -20 -27 -11 -8 -22 -31 -26 -57 -3 -24 -10 -43 -15 -43
-5 0 -9 -43 -9 -95 0 -54 4 -95 10 -95 5 0 12 -16 16 -35 3 -19 9 -35 13 -35
4 0 13 -27 20 -59 7 -33 19 -62 26 -65 7 -2 16 -19 20 -37 7 -30 12 -40 41
-72 6 -7 15 -28 19 -45 3 -18 12 -38 18 -45 14 -14 37 -77 37 -99 0 -9 7 -18
15 -22 10 -3 15 -19 15 -45 0 -22 5 -41 13 -44 6 -2 9 -8 5 -11 -7 -8 -48 28
-48 43 0 4 -13 22 -30 39 -16 18 -30 34 -30 38 0 3 -15 21 -32 39 -40 40 -78
87 -78 98 0 4 -20 27 -45 51 -25 25 -45 50 -45 55 0 6 -4 11 -10 11 -5 0 -10
9 -10 20 0 11 -7 20 -15 20 -19 0 -95 78 -95 97 0 7 -6 13 -13 13 -18 0 -97
76 -97 93 0 13 -71 37 -109 37 -11 0 -21 6 -23 13 -6 16 -245 17 -256 1 -4 -6
-21 -17 -39 -25 -18 -7 -38 -25 -45 -39 -7 -14 -15 -27 -18 -30 -18 -18 -30
-56 -30 -95 0 -25 -4 -45 -9 -45 -5 0 -11 -10 -13 -22 -2 -15 -13 -25 -34 -31
-18 -5 -38 -20 -45 -36 -8 -14 -20 -31 -28 -37 -19 -15 -10 -192 10 -206 11
-8 10 -8 -4 -4 -10 3 -23 6 -28 6 -5 0 -9 9 -9 21 0 22 -22 49 -39 49 -6 0
-11 4 -11 9 0 5 -18 29 -40 52 -22 24 -40 47 -40 51 0 4 -13 21 -30 36 -16 16
-30 34 -30 41 0 6 -6 11 -14 11 -8 0 -18 9 -21 20 -3 11 -12 20 -19 20 -8 0
-20 14 -27 32 -12 28 -75 98 -89 98 -3 0 -12 15 -19 33 -25 55 -61 77 -127 77
-23 0 -34 5 -34 15 0 8 -11 17 -24 21 -13 3 -29 15 -35 28 -7 12 -26 28 -44
36 -18 8 -41 22 -51 32 -11 10 -25 18 -31 18 -6 0 -18 11 -25 25 -13 24 -18
25 -97 25 -49 0 -83 -4 -83 -10 0 -5 -7 -10 -15 -10 -8 0 -19 -9 -25 -20 -6
-11 -17 -20 -26 -20 -8 0 -48 34 -89 75 -68 68 -78 75 -115 75 -22 0 -40 5
-40 10 0 6 -20 10 -45 10 -25 0 -45 -4 -45 -10 0 -5 -13 -10 -28 -10 -61 0
-112 -50 -112 -109 0 -12 -4 -21 -10 -21 -6 0 -10 -37 -10 -90 0 -53 4 -90 10
-90 6 0 10 -13 10 -29 0 -16 7 -42 15 -57 8 -16 15 -36 15 -45 0 -9 6 -19 14
-22 8 -3 17 -19 21 -36 4 -17 10 -31 15 -31 4 0 13 -13 19 -28 9 -21 9 -46 1
-98 -10 -62 -7 -176 6 -244 2 -14 1 -20 -3 -14 -4 6 -23 15 -41 19 -18 3 -38
12 -45 18 -22 20 -56 37 -75 37 -10 0 -24 11 -31 24 -9 17 -28 27 -67 36 -30
7 -54 16 -54 20 0 4 -15 14 -32 21 -18 7 -38 18 -45 24 -7 5 -19 16 -28 23 -9
8 -61 19 -115 24 -55 6 -100 15 -100 20 0 4 -31 8 -70 8 -38 0 -70 -4 -70 -9
0 -5 -24 -12 -54 -15 -30 -4 -64 -15 -75 -24 -48 -40 -66 -52 -78 -52 -7 0
-13 -7 -13 -15 0 -8 -9 -20 -20 -27 -11 -7 -20 -23 -20 -35 0 -13 -4 -23 -10
-23 -5 0 -10 -8 -10 -18 0 -10 -11 -24 -24 -31 -21 -12 -24 -23 -32 -102 l-9
-90 -24 18 c-13 10 -31 25 -41 34 -9 9 -38 22 -63 30 -26 7 -47 16 -47 20 0
26 -176 40 -248 19 -29 -8 -37 -6 -58 15 -13 13 -24 27 -24 30 0 10 -28 35
-39 35 -5 0 -13 9 -16 20 -3 11 -11 20 -16 20 -12 0 -39 25 -39 35 0 10 -27
35 -39 35 -5 0 -13 9 -16 20 -3 11 -11 20 -16 20 -14 0 -39 26 -39 39 0 7 -31
11 -85 11 -50 0 -85 -4 -85 -10 0 -5 -6 -10 -13 -10 -8 0 -24 -9 -37 -20 -13
-11 -26 -20 -31 -20 -24 0 -41 -328 -19 -385 5 -14 19 -35 30 -47 11 -12 20
-25 20 -30 0 -4 5 -8 11 -8 16 0 39 -27 39 -46 0 -54 27 -100 108 -180 47 -46
88 -84 93 -84 4 0 20 -12 34 -26 22 -22 28 -40 36 -112 5 -48 14 -89 19 -92 4
-3 12 -18 15 -33 4 -15 11 -27 16 -27 5 0 9 -9 9 -20 0 -20 20 -71 31 -80 3
-3 9 -21 12 -40 4 -19 10 -48 13 -65 5 -25 4 -28 -7 -17 -7 6 -21 12 -31 12
-10 0 -18 5 -18 11 0 7 -10 21 -23 33 -12 11 -29 37 -37 56 -8 19 -22 44 -32
54 -10 11 -18 25 -18 31 0 6 -11 18 -25 25 -16 8 -25 22 -25 37 0 13 -4 23
-10 23 -5 0 -18 8 -28 18 -38 38 -148 56 -193 31 -16 -8 -25 -4 -54 25 -19 20
-39 36 -45 36 -5 0 -10 4 -10 8 0 5 -9 19 -20 32 -11 13 -23 35 -27 48 -3 14
-13 33 -22 43 -32 35 -41 48 -41 59 0 6 -7 13 -15 16 -8 4 -15 15 -15 26 0 12
-8 28 -17 37 -24 22 -43 57 -43 79 0 10 -10 24 -22 31 -25 13 -48 54 -48 83 0
10 -5 18 -11 18 -5 0 -15 14 -20 30 -6 17 -17 30 -25 30 -8 0 -14 7 -14 15 0
8 -4 15 -9 15 -5 0 -12 13 -16 30 -4 16 -12 33 -18 37 -15 10 -37 49 -37 64 0
7 -11 22 -24 34 -13 12 -27 32 -31 43 -3 12 -13 22 -21 22 -8 0 -14 9 -14 20
0 11 -6 30 -13 43 -13 24 -12 23 -52 52 -15 11 -33 26 -40 32 -22 21 -64 33
-114 33 -65 0 -105 -16 -122 -48 -8 -15 -16 -29 -19 -32 -23 -23 -30 -61 -30
-170 l0 -120 -25 0 c-14 0 -25 5 -25 10 0 6 -18 10 -40 10 -22 0 -40 -4 -40
-8 0 -4 -16 -14 -35 -21 -30 -10 -37 -20 -47 -57 -7 -24 -16 -44 -20 -44 -4 0
-8 -27 -8 -61 0 -63 -13 -89 -46 -89 -9 0 -32 -16 -50 -36 -27 -28 -34 -44
-34 -75 0 -40 -8 -54 -45 -75 -11 -6 -21 -23 -23 -38 -2 -14 -7 -26 -12 -26
-8 0 -15 -80 -26 -309 -6 -115 5 -197 29 -214 9 -6 9 -10 0 -14 -16 -6 -18
-110 -3 -115 6 -2 16 -42 22 -91 6 -48 15 -87 20 -87 4 0 8 -9 8 -19 0 -11 7
-27 15 -35 9 -8 21 -29 26 -46 6 -16 15 -30 20 -30 5 0 9 -9 9 -19 0 -11 5
-23 10 -26 6 -3 10 -13 10 -22 0 -9 11 -26 25 -39 14 -13 25 -28 25 -34 0 -11
21 -52 31 -60 3 -3 9 -17 12 -32 4 -15 13 -33 20 -40 19 -22 37 -56 37 -73 0
-9 5 -21 10 -28 42 -49 50 -63 56 -93 3 -19 10 -34 14 -34 10 0 30 -47 30 -70
0 -11 5 -20 11 -20 16 0 35 -23 42 -52 4 -15 14 -33 22 -42 8 -8 15 -24 15
-35 0 -12 5 -21 10 -21 6 0 10 -7 10 -16 0 -8 6 -22 13 -29 30 -35 37 -45 37
-59 0 -8 -13 -17 -30 -21 -16 -4 -30 -11 -30 -16 0 -5 -11 -9 -25 -9 -14 0
-25 5 -25 10 0 6 -25 10 -55 10 -30 0 -55 -4 -55 -9 0 -5 -10 -11 -23 -15 -61
-15 -87 -73 -87 -196 0 -88 21 -323 30 -330 10 -8 30 -85 30 -114 0 -14 4 -26
9 -26 5 0 12 -16 15 -35 4 -19 11 -35 15 -35 5 0 11 -17 14 -37 10 -67 20
-108 26 -113 10 -7 31 -83 31 -109 0 -13 7 -29 15 -37 22 -22 19 -29 -18 -43
-46 -18 -57 -54 -57 -179 0 -110 15 -186 42 -216 10 -11 18 -26 18 -34 0 -7 6
-20 13 -27 26 -30 33 -41 46 -72 7 -18 17 -33 21 -33 5 0 10 -69 13 -152 2
-84 8 -163 12 -175 7 -22 5 -23 -48 -23 -31 0 -59 -4 -62 -10 -3 -5 -15 -10
-25 -10 -10 0 -22 -9 -25 -20 -3 -11 -10 -20 -15 -20 -5 0 -11 -13 -15 -30 -4
-16 -11 -30 -16 -30 -5 0 -9 -11 -9 -25 0 -14 5 -25 10 -25 6 0 10 -11 10 -24
0 -14 6 -31 14 -38 7 -8 16 -29 19 -48 11 -66 20 -93 38 -111 11 -11 19 -25
19 -33 0 -8 7 -16 15 -20 8 -3 15 -10 15 -16 0 -11 9 -24 41 -60 9 -10 22 -34
29 -54 6 -20 18 -36 26 -36 8 0 14 -7 14 -15 0 -8 5 -15 10 -15 6 0 10 -6 10
-12 0 -7 11 -26 25 -42 14 -16 25 -33 25 -37 0 -5 13 -22 30 -39 16 -16 35
-40 41 -52 7 -13 20 -29 31 -36 10 -7 18 -19 18 -25 0 -7 9 -19 20 -27 11 -8
20 -22 20 -31 0 -9 11 -19 23 -23 24 -6 47 -57 47 -105 0 -11 4 -21 8 -21 10
0 32 -81 32 -115 0 -14 4 -25 9 -25 5 0 12 -13 16 -30 4 -17 10 -30 14 -30 8
0 12 -18 28 -117 3 -18 9 -33 13 -33 5 0 14 -15 21 -34 8 -22 21 -37 36 -41
13 -3 23 -11 23 -19 0 -16 76 -28 121 -19 18 3 40 14 51 25 10 10 24 18 32 18
13 0 19 18 33 98 3 17 9 32 14 32 5 0 9 36 9 80 0 77 1 80 20 68 11 -7 24 -25
29 -40 6 -17 20 -30 35 -34 14 -3 26 -13 26 -20 0 -8 12 -27 28 -43 15 -15 34
-37 42 -49 8 -12 19 -22 26 -22 14 0 34 -44 34 -76 0 -14 6 -32 14 -40 8 -8
18 -39 21 -69 4 -30 11 -55 16 -55 4 0 11 -20 15 -45 3 -25 10 -45 15 -45 5 0
9 -13 9 -29 0 -41 22 -131 32 -131 4 0 8 -12 8 -26 0 -66 32 -128 79 -153 25
-14 161 -15 161 -1 0 6 9 10 20 10 11 0 20 5 20 11 0 11 25 39 35 39 11 0 105
97 105 108 0 7 5 12 10 12 6 0 10 32 10 75 0 41 -4 75 -9 75 -5 0 -12 16 -15
35 -4 19 -10 35 -15 35 -4 0 -14 32 -21 70 -7 39 -17 70 -21 70 -4 0 -10 168
-13 373 -7 419 -13 547 -27 547 -5 0 -9 53 -9 120 0 66 3 120 8 120 8 0 32
-92 32 -123 0 -9 4 -17 9 -17 12 0 31 -56 31 -91 0 -16 5 -29 10 -29 6 0 10
-7 10 -15 0 -9 11 -21 25 -27 14 -6 25 -14 25 -18 0 -12 50 -30 85 -30 37 0
85 18 85 32 0 4 6 8 14 8 8 0 20 16 27 35 7 19 17 35 21 35 4 0 8 29 8 65 0
37 -4 65 -10 65 -5 0 -10 5 -10 10 0 14 28 12 33 -2 6 -20 135 -17 147 2 7 11
10 7 10 -17 0 -18 5 -33 10 -33 6 0 10 -7 10 -15 0 -9 7 -18 15 -21 8 -4 15
-13 15 -22 0 -17 22 -84 30 -92 12 -11 30 -63 30 -85 0 -14 4 -25 9 -25 5 0
12 -11 15 -25 4 -14 11 -25 16 -25 6 0 10 -12 10 -26 0 -32 21 -104 30 -104 3
0 13 -29 20 -65 7 -36 17 -65 21 -65 4 0 10 -14 14 -30 4 -17 11 -30 16 -30 5
0 9 -9 9 -20 0 -19 19 -71 30 -80 4 -3 12 -32 20 -65 8 -33 19 -65 25 -72 29
-34 35 -43 35 -48 0 -4 6 -12 13 -20 44 -43 181 -36 193 11 3 13 11 24 16 24
25 0 38 31 38 89 0 34 -4 61 -9 61 -5 0 -12 20 -15 45 -4 25 -11 45 -16 45 -5
0 -12 20 -16 45 -3 26 -12 52 -19 59 -7 7 -19 39 -26 72 -7 32 -19 65 -26 72
-7 7 -13 20 -13 28 0 8 -4 14 -10 14 -5 0 -10 11 -10 25 0 26 -19 75 -30 75
-3 0 -13 29 -20 65 -7 36 -17 65 -21 65 -10 0 -29 57 -29 86 0 13 -4 24 -10
24 -5 0 -10 7 -10 15 0 9 -7 18 -15 21 -16 7 -21 54 -5 54 5 0 12 -11 16 -25
3 -14 10 -25 15 -25 5 0 9 -9 9 -19 0 -11 8 -26 18 -33 11 -7 25 -37 32 -65 8
-29 17 -53 20 -53 9 0 30 -47 30 -66 0 -9 6 -22 13 -29 32 -36 37 -46 37 -68
0 -34 22 -75 45 -83 11 -4 49 -10 85 -13 58 -5 65 -9 68 -29 2 -12 8 -22 13
-22 5 0 9 -7 9 -15 0 -8 4 -15 8 -15 4 0 14 -16 21 -35 7 -19 17 -35 22 -35 5
0 9 -9 9 -19 0 -11 9 -22 19 -26 11 -3 22 -19 26 -35 4 -17 12 -33 18 -37 14
-10 47 -78 47 -98 0 -8 5 -15 11 -15 5 0 15 -13 20 -30 6 -16 14 -30 19 -30 4
0 14 -15 21 -32 7 -18 19 -39 26 -46 7 -7 16 -25 20 -40 3 -15 15 -33 25 -40
10 -7 18 -22 18 -33 0 -10 4 -19 9 -19 5 0 15 -14 22 -32 7 -18 20 -40 29 -49
27 -31 37 -45 50 -70 7 -13 21 -31 32 -40 10 -9 18 -24 18 -33 0 -9 7 -16 15
-16 8 0 15 -4 15 -10 0 -8 56 -65 111 -113 32 -29 95 -39 155 -27 60 13 84 1
84 -39 0 -25 20 -71 32 -71 4 0 8 -11 8 -25 0 -26 19 -75 29 -75 4 0 13 -21
20 -47 17 -54 38 -84 95 -130 19 -16 196 -18 196 -3 0 6 6 10 13 10 24 0 77
73 77 107 0 18 5 33 10 33 6 0 10 11 10 25 0 23 4 25 45 25 32 0 52 6 67 20
12 11 27 20 33 20 13 0 35 76 35 120 0 27 3 30 24 24 34 -8 102 13 130 41 37
37 48 89 34 157 -7 32 -15 58 -18 58 -4 0 -12 16 -20 35 -8 19 -17 35 -22 35
-4 0 -8 7 -8 15 0 8 -4 15 -10 15 -5 0 -10 9 -10 19 0 10 -7 21 -15 25 -8 3
-15 12 -15 19 0 8 -9 25 -21 38 -11 13 -23 36 -26 51 -3 15 -11 29 -19 32 -7
3 -16 28 -20 56 -4 27 -10 50 -15 50 -19 0 -27 73 -19 158 6 48 10 174 10 280
0 172 8 230 23 172 3 -11 12 -20 21 -20 9 0 16 -6 16 -14 0 -8 7 -17 16 -20
28 -11 179 -7 191 5 17 17 37 -7 53 -63 8 -27 18 -48 22 -48 4 0 8 -5 8 -11 0
-12 25 -39 36 -39 4 0 18 -12 32 -27 23 -25 32 -28 93 -28 65 0 68 1 103 38
19 21 38 53 42 72 7 38 -1 283 -10 330 -6 28 -5 28 5 8 7 -13 15 -23 19 -23 4
0 13 -25 20 -55 7 -30 17 -55 22 -55 4 0 8 -7 8 -15 0 -9 7 -18 15 -21 8 -4
15 -14 15 -25 0 -21 20 -69 30 -69 3 0 12 -23 20 -52 7 -29 18 -58 24 -65 29
-32 34 -42 41 -72 4 -18 13 -35 21 -38 8 -3 14 -12 14 -21 0 -25 24 -86 38
-97 7 -6 16 -29 19 -52 4 -28 12 -44 27 -52 12 -7 27 -30 34 -53 7 -22 20 -47
28 -55 8 -9 18 -28 21 -44 3 -16 9 -29 14 -29 5 0 9 -7 9 -15 0 -8 6 -15 13
-15 12 0 37 -64 37 -94 0 -8 7 -16 15 -20 8 -3 15 -12 15 -19 0 -12 9 -26 50
-74 5 -7 10 -21 10 -31 0 -28 21 -82 31 -82 5 0 9 -11 9 -23 0 -24 33 -47 65
-47 8 0 15 -4 15 -10 0 -5 23 -10 50 -10 28 0 50 5 50 10 0 6 7 10 16 10 21 0
44 25 44 48 0 11 7 23 16 26 14 5 16 17 11 72 -3 37 -9 69 -15 73 -9 6 -13 24
-29 116 -3 22 -12 45 -19 50 -6 6 -15 27 -19 49 -3 21 -12 45 -18 52 -7 8 -17
20 -22 27 -6 7 -17 38 -25 69 -7 32 -17 58 -21 58 -4 0 -13 23 -20 50 -7 28
-16 50 -20 50 -4 0 -10 11 -13 25 -4 14 -10 25 -15 25 -5 0 -15 29 -22 65 -7
36 -16 65 -20 65 -9 0 -29 57 -29 85 0 13 -7 25 -15 29 -22 8 -18 38 10 65 14
13 25 30 25 38 0 10 6 13 16 9 9 -3 18 -6 20 -6 2 0 4 -11 4 -24 0 -17 7 -26
24 -30 13 -3 26 -15 29 -25 3 -13 17 -22 41 -26 20 -4 36 -11 36 -16 0 -5 18
-9 40 -9 22 0 40 5 40 10 0 6 11 10 25 10 14 0 25 5 25 10 0 6 5 10 11 10 6 0
18 7 27 17 23 22 24 162 2 186 -34 37 -40 47 -40 67 0 16 6 20 30 20 16 0 33
-7 38 -16 13 -23 161 -23 174 0 11 20 28 21 28 2 0 -8 9 -17 19 -21 10 -3 21
-18 24 -33 13 -61 21 -87 31 -99 29 -33 36 -43 36 -54 0 -21 24 -79 32 -79 4
0 8 -13 8 -29 0 -17 5 -33 10 -36 6 -3 10 -17 10 -31 0 -13 4 -24 10 -24 5 0
15 -19 22 -43 7 -23 18 -48 25 -55 7 -7 13 -20 13 -28 0 -8 4 -14 8 -14 4 0
14 -21 22 -47 7 -27 20 -54 27 -62 8 -7 17 -26 20 -42 3 -15 11 -30 19 -33 8
-3 14 -12 14 -21 0 -8 4 -15 8 -15 5 0 14 -16 22 -35 8 -19 17 -35 22 -35 5 0
14 -11 20 -25 6 -14 16 -25 21 -25 5 0 21 -12 35 -27 24 -26 32 -28 102 -28
72 0 78 2 103 29 15 16 30 40 33 53 4 13 10 23 15 23 5 0 9 18 9 40 0 22 -3
40 -7 40 -14 0 -33 53 -33 88 0 18 -7 40 -15 48 -8 9 -15 26 -15 40 0 13 -3
24 -8 24 -8 0 -32 113 -32 150 0 11 -4 20 -8 20 -8 0 -32 79 -32 106 0 8 -7
22 -15 30 -8 9 -15 26 -15 40 0 13 -3 24 -8 24 -8 0 -32 93 -32 128 0 12 -4
22 -10 22 -5 0 -10 4 -10 8 0 5 37 7 83 4 87 -5 117 -20 117 -61 0 -34 64 -92
107 -98 42 -6 123 12 123 27 0 6 6 10 14 10 16 0 36 50 36 90 0 23 5 29 31 34
17 3 51 6 75 6 24 0 44 4 44 9 0 5 13 11 29 13 31 5 41 -9 41 -59 0 -13 5 -23
10 -23 6 0 10 -11 10 -25 0 -26 17 -64 35 -77 6 -4 20 -8 33 -8 12 0 22 -4 22
-10 0 -5 18 -10 40 -10 22 0 40 5 40 10 0 6 11 10 24 10 14 0 34 13 50 32 l27
33 -3 153 c-2 89 -7 156 -13 160 -17 12 -34 94 -24 114 10 19 13 207 3 232 -3
9 -11 16 -18 16 -6 0 -18 20 -25 45 -7 25 -17 45 -22 45 -5 0 -9 13 -9 28 0
30 -20 82 -32 82 -5 0 -8 11 -8 24 0 14 -4 36 -10 50 -14 37 -3 56 31 56 39 0
86 48 95 97 9 46 -9 116 -37 144 -24 24 -69 39 -116 39 -20 0 -33 5 -33 13 0
7 -8 20 -17 29 -68 62 -79 92 -38 102 14 4 25 11 25 17 0 5 9 19 20 31 17 19
20 36 20 115 0 97 -15 183 -34 195 -8 5 -11 93 -11 273 0 255 -1 267 -20 280
-11 8 -26 19 -32 25 -7 6 -24 15 -38 20 -39 15 -30 27 23 32 32 3 56 12 70 26
12 12 27 22 32 22 6 0 10 9 10 20 0 11 5 20 10 20 6 0 10 25 10 55 0 30 -4 55
-10 55 -5 0 -10 11 -10 24 0 15 -7 27 -19 31 -25 8 -32 34 -36 129 -3 65 -7
81 -24 93 -12 8 -21 21 -21 29 0 9 -6 22 -12 29 -30 34 -38 45 -38 55 0 18
-25 90 -31 90 -3 0 -12 19 -20 43 -7 23 -19 48 -26 55 -7 7 -13 20 -13 28 0 8
-4 14 -10 14 -5 0 -10 13 -10 30 0 19 -7 34 -20 42 -11 7 -20 22 -20 34 0 29
-20 84 -31 84 -5 0 -9 7 -9 15 0 9 -7 18 -15 21 -28 11 -15 21 37 27 28 4 54
10 57 15 3 5 15 12 27 16 11 3 26 22 33 41 7 19 17 35 22 35 5 0 9 16 9 35 0
19 -4 35 -9 35 -5 0 -14 27 -22 60 -7 33 -16 60 -20 60 -4 0 -10 14 -14 30 -4
17 -11 30 -16 30 -5 0 -9 11 -9 25 0 23 -18 75 -30 85 -4 3 -12 31 -20 63 -7
31 -17 57 -22 57 -4 0 -8 6 -8 14 0 8 -6 21 -13 28 -7 7 -19 34 -26 61 -8 26
-18 47 -22 47 -5 0 -9 9 -9 19 0 11 -4 23 -10 26 -5 3 -10 15 -10 26 0 11 -6
27 -12 34 -31 34 -36 43 -43 74 -4 18 -13 35 -21 38 -8 3 -14 16 -14 29 0 13
-4 24 -10 24 -5 0 -10 9 -10 20 0 11 -4 20 -9 20 -5 0 -14 14 -20 30 -5 17
-16 37 -23 45 -30 33 -36 43 -49 81 -8 21 -22 45 -31 52 -10 7 -18 23 -18 36
0 14 -10 28 -25 36 -14 7 -25 22 -25 32 0 10 -4 18 -10 18 -5 0 -10 10 -10 23
0 12 -9 28 -20 35 -11 7 -20 18 -20 26 0 8 -7 16 -15 20 -8 3 -15 12 -15 21 0
8 -4 15 -10 15 -5 0 -10 6 -10 14 0 7 -13 27 -30 44 -16 18 -30 39 -30 47 0 8
-7 15 -15 15 -8 0 -15 7 -15 15 0 8 -4 15 -10 15 -5 0 -10 7 -10 16 0 9 -9 18
-20 21 -11 3 -20 14 -20 24 0 11 -4 19 -10 19 -5 0 -10 5 -10 11 0 6 -6 17
-14 25 -8 8 -19 14 -25 14 -6 0 -11 4 -11 10 0 5 -13 23 -30 40 -16 17 -30 37
-30 44 0 8 -9 16 -20 19 -11 3 -20 12 -20 19 0 8 -11 20 -24 28 -14 7 -27 22
-30 34 -3 12 -17 35 -31 52 -14 16 -25 32 -25 36 0 4 -13 21 -30 38 -16 17
-30 34 -30 39 0 4 -11 21 -25 37 -14 16 -25 32 -25 36 0 4 -13 22 -30 40 -51
57 -57 64 -71 97 -8 18 -24 34 -36 37 -13 4 -23 13 -23 21 0 9 -8 23 -18 32
-10 9 -25 30 -32 48 -8 17 -22 34 -32 36 -10 3 -18 12 -18 20 0 9 -10 19 -22
23 -13 4 -29 15 -36 25 -15 22 -78 23 -169 6z m-1037 -2332 c92 -28 170 -107
199 -202 6 -22 4 -23 -52 -22 -58 0 -58 0 -88 47 -41 62 -98 92 -180 92 -77 0
-140 -30 -166 -80 -23 -42 -24 -69 -5 -115 20 -46 68 -74 221 -128 163 -59
224 -98 259 -168 75 -152 -16 -305 -204 -345 -185 -39 -362 34 -434 178 -37
74 -36 78 33 78 56 0 59 -1 71 -30 37 -90 147 -148 261 -137 112 10 173 62
173 147 0 86 -40 120 -217 184 -174 63 -241 106 -276 179 -51 105 -4 239 104
295 83 43 210 55 301 27z m-2976 -410 l0 -405 226 0 225 0 -3 -47 -3 -48 -275
0 -275 0 -3 453 -2 452 55 0 55 0 0 -405z m1143 -42 c98 -247 177 -451 177
-455 0 -5 -24 -8 -54 -8 l-54 0 -48 125 -49 125 -210 0 -210 0 -48 -125 -48
-125 -55 0 c-30 0 -54 4 -54 8 0 5 77 200 171 433 94 233 175 434 180 447 7
19 16 22 67 22 l59 0 176 -447z m457 65 c74 -208 138 -374 142 -370 3 4 65
173 136 375 72 203 133 371 135 374 3 2 29 3 60 1 l55 -3 -124 -340 c-68 -187
-142 -391 -165 -452 l-41 -113 -58 0 -59 0 -21 58 c-87 231 -310 841 -310 846
0 4 26 6 58 4 l57 -3 135 -377z m740 -74 l0 -455 -52 3 -53 3 -3 453 -2 452
55 0 55 0 0 -456z m1130 261 l0 -195 260 0 260 0 0 195 0 195 55 0 55 0 -2
-452 -3 -453 -50 0 -50 0 -3 208 -2 207 -260 0 -260 0 0 -211 0 -210 -52 3
-53 3 -3 453 -2 452 55 0 55 0 0 -195z m-4427 -1245 c83 -26 156 -90 198 -171
16 -32 29 -61 29 -64 0 -3 -26 -5 -59 -5 -56 0 -59 1 -71 30 -17 42 -90 104
-138 118 -66 20 -160 15 -217 -12 -63 -29 -127 -100 -157 -175 -19 -47 -22
-75 -22 -176 0 -102 3 -129 23 -179 27 -68 87 -138 146 -169 54 -29 192 -31
247 -4 78 39 127 114 135 208 l6 58 -134 3 -134 3 -3 48 -3 47 190 0 191 0 0
-88 c0 -224 -92 -352 -280 -389 -285 -56 -500 142 -500 462 0 190 77 345 209
423 94 55 229 67 344 32z m2780 0 c83 -26 156 -90 198 -171 16 -32 29 -61 29
-64 0 -3 -26 -5 -59 -5 -56 0 -59 1 -71 30 -17 42 -90 104 -138 118 -66 20
-160 15 -217 -12 -63 -29 -127 -100 -157 -175 -19 -47 -22 -75 -22 -176 0
-101 3 -129 22 -176 27 -69 90 -142 146 -172 55 -29 192 -31 248 -4 78 39 127
114 135 208 l6 58 -134 3 -134 3 -3 48 -3 47 190 0 191 0 0 -88 c0 -156 -46
-267 -137 -332 -149 -107 -392 -84 -517 50 -85 91 -126 206 -126 355 0 190 77
345 209 423 94 55 229 67 344 32z m-1760 -447 c98 -247 177 -451 177 -455 0
-5 -24 -8 -54 -8 l-54 0 -48 125 -49 125 -210 0 -210 0 -48 -125 -48 -125 -55
0 c-30 0 -54 4 -54 8 0 5 77 200 171 433 94 233 175 434 180 447 7 19 16 22
67 22 l59 0 176 -447z m660 81 l257 -367 0 367 0 366 55 0 55 0 -2 -452 -3
-453 -55 0 -55 0 -255 364 -255 364 -3 -367 -2 -367 -53 3 -52 3 -3 453 -2
452 58 0 58 0 257 -366z m1590 314 c9 -29 55 -195 103 -368 47 -173 89 -318
93 -322 3 -4 56 160 116 365 l111 372 64 0 64 0 107 -355 c59 -195 110 -364
114 -375 4 -13 43 110 113 355 l107 375 58 3 c34 2 57 -1 57 -7 0 -13 -258
-880 -266 -892 -3 -5 -32 -9 -64 -9 l-59 0 -22 73 c-178 594 -209 690 -214
672 -4 -11 -55 -182 -114 -380 l-106 -360 -62 -3 -61 -3 -11 33 c-7 24 -218
729 -257 861 -5 15 2 17 55 17 l60 0 14 -52z m1800 -395 c98 -247 177 -451
177 -455 0 -5 -24 -8 -54 -8 l-54 0 -48 125 -49 125 -210 0 -210 0 -48 -125
-48 -125 -55 0 c-30 0 -54 4 -54 8 0 5 77 200 171 433 94 233 175 434 180 447
7 19 16 22 67 22 l59 0 176 -447z m660 81 l257 -367 0 367 0 366 55 0 55 0 -2
-452 -3 -453 -55 0 -55 0 -255 364 -255 364 -3 -367 -2 -367 -53 3 -52 3 -3
453 -2 452 58 0 59 0 256 -366z m687 -90 l0 -455 -52 3 -53 3 -3 453 -2 452
55 0 55 0 0 -456z"/>
<path d="M5157 6918 c-42 -106 -79 -201 -83 -210 -6 -17 6 -18 160 -18 91 0
166 3 166 7 0 11 -151 397 -159 406 -4 4 -42 -79 -84 -185z"/>
<path d="M4077 5478 c-42 -106 -79 -201 -83 -210 -6 -17 6 -18 160 -18 91 0
166 3 166 7 0 11 -151 397 -159 406 -4 4 -42 -79 -84 -185z"/>
<path d="M8127 5478 c-42 -106 -79 -201 -83 -210 -6 -17 6 -18 160 -18 91 0
166 3 166 7 0 11 -151 397 -159 406 -4 4 -42 -79 -84 -185z"/>
</g>
</svg>
