<svg version="1.1" id="Layer_1" xmlns="http://www.w3.org/2000/svg" xmlns:xlink="http://www.w3.org/1999/xlink" x="0px" y="0px"
	 width="100%" viewBox="0 0 1024 1024" enable-background="new 0 0 1024 1024" xml:space="preserve">
<path fill="#FFFFFF" opacity="1.000000" stroke="none" 
	d="
M580.000000,1025.000000 
	C386.666656,1025.000000 193.833328,1025.000000 1.000000,1025.000000 
	C1.000000,683.666687 1.000000,342.333344 1.000000,1.000000 
	C342.333344,1.000000 683.666687,1.000000 1025.000000,1.000000 
	C1025.000000,342.333344 1025.000000,683.666687 1025.000000,1025.000000 
	C876.833313,1025.000000 728.666687,1025.000000 580.000000,1025.000000 
M925.891357,433.357391 
	C926.020813,430.698242 926.088806,428.034454 926.289978,425.380737 
	C927.282715,412.285614 928.332031,399.157410 925.874878,386.139526 
	C921.922668,365.201233 909.445007,351.757782 889.117737,345.607727 
	C875.501770,341.488190 861.453796,342.327454 847.505127,342.491394 
	C846.390320,342.504456 844.397583,344.828003 844.350769,346.133087 
	C844.057800,354.287231 844.291748,362.458588 844.155945,370.621002 
	C844.105408,373.662445 845.255798,374.771057 848.254333,374.724701 
	C854.249207,374.632019 860.259705,374.554932 866.242554,374.871704 
	C882.264954,375.720062 891.272888,384.249664 890.979858,400.129883 
	C890.621338,419.555084 888.966675,438.958191 887.789856,458.365845 
	C886.603577,477.931274 884.076111,497.511719 884.409119,517.046814 
	C884.768066,538.105286 895.029663,554.145020 915.325317,562.442871 
	C918.925964,563.914978 922.689880,564.987732 926.916931,566.428467 
	C897.083008,574.921082 883.902954,592.324951 884.063965,622.664917 
	C884.106262,630.642029 884.495422,638.633240 885.115356,646.587585 
	C886.147766,659.833496 887.770813,673.036865 888.639832,686.291199 
	C889.716125,702.705627 890.747437,719.149536 890.898376,735.588928 
	C891.002197,746.893860 884.086975,754.983337 872.886292,756.935730 
	C864.934204,758.321960 856.673523,758.054565 848.544067,758.246704 
	C845.372559,758.321594 844.072266,759.262024 844.144653,762.585327 
	C844.318970,770.579590 844.288940,778.581665 844.156860,786.577515 
	C844.107422,789.574951 845.168762,790.809814 848.211365,790.713135 
	C858.019104,790.401245 867.866211,790.671631 877.634766,789.907227 
	C906.213257,787.671021 926.645325,765.957520 926.924194,737.483826 
	C927.044495,725.198669 926.691284,712.875366 925.812927,700.622437 
	C924.720886,685.388489 922.536499,670.233154 921.434265,654.999695 
	C920.486938,641.906860 919.761536,628.729065 920.232544,615.635376 
	C920.428894,610.176758 923.150269,604.311279 926.175293,599.553894 
	C932.832275,589.084167 943.726929,584.632385 955.325500,582.047974 
	C958.971069,581.235657 960.275574,579.890198 960.086548,576.141846 
	C959.776428,569.992310 959.735840,563.800171 960.093689,557.655884 
	C960.344055,553.357849 959.000366,551.807190 954.629700,550.829102 
	C937.681458,547.036499 924.217041,538.768860 920.521851,520.209900 
	C919.559570,515.376892 919.446472,510.231384 919.829895,505.298309 
	C921.670471,481.615997 923.815125,457.957275 925.891357,433.357391 
M117.220901,630.788635 
	C116.098778,644.536865 114.849426,658.276123 113.884926,672.035400 
	C112.502335,691.758911 110.206116,711.505188 110.349823,731.226807 
	C110.526909,755.529663 122.752975,774.645996 147.909195,782.389954 
	C162.484558,786.876770 177.283554,784.082275 192.604736,785.163879 
	C192.604736,774.927795 192.693939,765.309998 192.445908,755.700989 
	C192.424637,754.876831 190.198227,753.492859 188.938446,753.423889 
	C183.453293,753.123596 177.942993,753.326355 172.448715,753.141602 
	C154.316879,752.532043 145.432266,744.140320 146.006973,726.101624 
	C146.699875,704.352356 148.768005,682.648743 150.132950,660.918518 
	C151.153854,644.665710 153.109818,628.370850 152.650665,612.151367 
	C152.073624,591.765930 142.900955,575.733948 123.294220,567.193848 
	C119.429024,565.510254 115.411247,564.176941 111.009384,562.510010 
	C112.445480,561.938843 113.338631,561.461121 114.291641,561.222473 
	C140.376297,554.690918 153.656052,533.660339 152.977142,507.741089 
	C152.755020,499.260712 152.491013,490.771759 151.876572,482.313599 
	C150.973755,469.885468 149.536484,457.495178 148.695847,445.063812 
	C147.586060,428.652069 146.319748,412.223236 146.093597,395.788361 
	C145.920578,383.213501 153.757858,374.749817 166.216797,373.034729 
	C173.424042,372.042572 180.798752,372.066925 188.099548,372.040955 
	C191.615936,372.028442 192.793213,370.863892 192.716827,367.421936 
	C192.546768,359.759399 192.564743,352.088684 192.708359,344.425079 
	C192.769104,341.183777 191.595016,339.968262 188.322220,340.107605 
	C178.851776,340.510895 169.328796,340.223236 159.904755,341.074036 
	C129.551620,343.814301 109.751572,364.991089 110.243484,395.507141 
	C110.591316,417.084625 112.717857,438.639618 114.262772,460.189453 
	C115.308189,474.771851 117.059105,489.309143 117.869133,503.901306 
	C118.559273,516.333801 115.451553,527.698730 105.553650,536.295349 
	C98.846458,542.120789 91.011200,545.581970 82.351578,547.195496 
	C78.450706,547.922424 76.803497,549.710815 77.101624,553.952332 
	C77.521263,559.922546 77.470268,565.959900 77.113739,571.938293 
	C76.887512,575.731873 78.301147,577.249207 81.841721,577.933594 
	C90.987122,579.701355 99.369217,583.345886 106.241325,589.726379 
	C118.132538,600.766846 119.068779,614.973999 117.220901,630.788635 
z"/>
<path fill="#70EAE5" opacity="1.000000" stroke="none" 
	d="
M925.871521,433.823792 
	C923.815125,457.957275 921.670471,481.615997 919.829895,505.298309 
	C919.446472,510.231384 919.559570,515.376892 920.521851,520.209900 
	C924.217041,538.768860 937.681458,547.036499 954.629700,550.829102 
	C959.000366,551.807190 960.344055,553.357849 960.093689,557.655884 
	C959.735840,563.800171 959.776428,569.992310 960.086548,576.141846 
	C960.275574,579.890198 958.971069,581.235657 955.325500,582.047974 
	C943.726929,584.632385 932.832275,589.084167 926.175293,599.553894 
	C923.150269,604.311279 920.428894,610.176758 920.232544,615.635376 
	C919.761536,628.729065 920.486938,641.906860 921.434265,654.999695 
	C922.536499,670.233154 924.720886,685.388489 925.812927,700.622437 
	C926.691284,712.875366 927.044495,725.198669 926.924194,737.483826 
	C926.645325,765.957520 906.213257,787.671021 877.634766,789.907227 
	C867.866211,790.671631 858.019104,790.401245 848.211365,790.713135 
	C845.168762,790.809814 844.107422,789.574951 844.156860,786.577515 
	C844.288940,778.581665 844.318970,770.579590 844.144653,762.585327 
	C844.072266,759.262024 845.372559,758.321594 848.544067,758.246704 
	C856.673523,758.054565 864.934204,758.321960 872.886292,756.935730 
	C884.086975,754.983337 891.002197,746.893860 890.898376,735.588928 
	C890.747437,719.149536 889.716125,702.705627 888.639832,686.291199 
	C887.770813,673.036865 886.147766,659.833496 885.115356,646.587585 
	C884.495422,638.633240 884.106262,630.642029 884.063965,622.664917 
	C883.902954,592.324951 897.083008,574.921082 926.916931,566.428467 
	C922.689880,564.987732 918.925964,563.914978 915.325317,562.442871 
	C895.029663,554.145020 884.768066,538.105286 884.409119,517.046814 
	C884.076111,497.511719 886.603577,477.931274 887.789856,458.365845 
	C888.966675,438.958191 890.621338,419.555084 890.979858,400.129883 
	C891.272888,384.249664 882.264954,375.720062 866.242554,374.871704 
	C860.259705,374.554932 854.249207,374.632019 848.254333,374.724701 
	C845.255798,374.771057 844.105408,373.662445 844.155945,370.621002 
	C844.291748,362.458588 844.057800,354.287231 844.350769,346.133087 
	C844.397583,344.828003 846.390320,342.504456 847.505127,342.491394 
	C861.453796,342.327454 875.501770,341.488190 889.117737,345.607727 
	C909.445007,351.757782 921.922668,365.201233 925.874878,386.139526 
	C928.332031,399.157410 927.282715,412.285614 926.289978,425.380737 
	C926.088806,428.034454 926.020813,430.698242 925.871521,433.823792 
z"/>
<path fill="#70EAE5" opacity="1.000000" stroke="none" 
	d="
M117.251907,630.323486 
	C119.068779,614.973999 118.132538,600.766846 106.241325,589.726379 
	C99.369217,583.345886 90.987122,579.701355 81.841721,577.933594 
	C78.301147,577.249207 76.887512,575.731873 77.113739,571.938293 
	C77.470268,565.959900 77.521263,559.922546 77.101624,553.952332 
	C76.803497,549.710815 78.450706,547.922424 82.351578,547.195496 
	C91.011200,545.581970 98.846458,542.120789 105.553650,536.295349 
	C115.451553,527.698730 118.559273,516.333801 117.869133,503.901306 
	C117.059105,489.309143 115.308189,474.771851 114.262772,460.189453 
	C112.717857,438.639618 110.591316,417.084625 110.243484,395.507141 
	C109.751572,364.991089 129.551620,343.814301 159.904755,341.074036 
	C169.328796,340.223236 178.851776,340.510895 188.322220,340.107605 
	C191.595016,339.968262 192.769104,341.183777 192.708359,344.425079 
	C192.564743,352.088684 192.546768,359.759399 192.716827,367.421936 
	C192.793213,370.863892 191.615936,372.028442 188.099548,372.040955 
	C180.798752,372.066925 173.424042,372.042572 166.216797,373.034729 
	C153.757858,374.749817 145.920578,383.213501 146.093597,395.788361 
	C146.319748,412.223236 147.586060,428.652069 148.695847,445.063812 
	C149.536484,457.495178 150.973755,469.885468 151.876572,482.313599 
	C152.491013,490.771759 152.755020,499.260712 152.977142,507.741089 
	C153.656052,533.660339 140.376297,554.690918 114.291641,561.222473 
	C113.338631,561.461121 112.445480,561.938843 111.009384,562.510010 
	C115.411247,564.176941 119.429024,565.510254 123.294220,567.193848 
	C142.900955,575.733948 152.073624,591.765930 152.650665,612.151367 
	C153.109818,628.370850 151.153854,644.665710 150.132950,660.918518 
	C148.768005,682.648743 146.699875,704.352356 146.006973,726.101624 
	C145.432266,744.140320 154.316879,752.532043 172.448715,753.141602 
	C177.942993,753.326355 183.453293,753.123596 188.938446,753.423889 
	C190.198227,753.492859 192.424637,754.876831 192.445908,755.700989 
	C192.693939,765.309998 192.604736,774.927795 192.604736,785.163879 
	C177.283554,784.082275 162.484558,786.876770 147.909195,782.389954 
	C122.752975,774.645996 110.526909,755.529663 110.349823,731.226807 
	C110.206116,711.505188 112.502335,691.758911 113.884926,672.035400 
	C114.849426,658.276123 116.098778,644.536865 117.251907,630.323486 
z"/>
</svg>